<?xml version="1.0" standalone="no"?>
<!DOCTYPE svg PUBLIC "-//W3C//DTD SVG 20010904//EN"
 "http://www.w3.org/TR/2001/REC-SVG-20010904/DTD/svg10.dtd">
<svg version="1.0" xmlns="http://www.w3.org/2000/svg"
 width="640.000000pt" height="640.000000pt" viewBox="0 0 640.000000 640.000000"
 preserveAspectRatio="xMidYMid meet">
<metadata>
Created by potrace 1.11, written by Peter Selinger 2001-2013
</metadata>
<g transform="translate(0.000000,640.000000) scale(0.100000,-0.100000)"
fill="#000000" stroke="none">
<path d="M1377 6143 c-4 -3 -1 -13 6 -21 10 -13 8 -14 -13 -8 -17 5 -21 4 -11
-2 8 -6 9 -12 3 -16 -6 -3 -13 -2 -17 4 -4 6 -11 8 -16 4 -5 -3 -7 -9 -4 -14
3 -5 0 -12 -5 -15 -8 -5 -5 -14 7 -27 9 -11 13 -19 8 -18 -23 5 -36 -1 -29
-12 5 -9 3 -9 -9 1 -17 14 -18 14 -33 -37 -2 -7 -9 -11 -15 -10 -6 2 -14 -3
-17 -11 -2 -8 0 -11 5 -8 5 3 10 0 10 -8 0 -11 -4 -12 -13 -4 -18 14 -35 2
-27 -19 7 -18 5 -17 -17 12 -12 16 -12 18 -1 11 10 -6 12 -4 6 5 -5 8 -4 11 3
6 6 -3 13 -3 16 2 2 4 -4 13 -14 20 -14 9 -21 9 -26 0 -4 -7 -3 -8 4 -4 19 11
14 -4 -10 -33 -28 -33 -38 -37 -50 -19 -8 10 -9 10 -5 -2 5 -21 29 -20 48 3
14 18 17 18 22 3 4 -10 3 -15 -3 -11 -5 3 -15 -3 -21 -14 -7 -10 -18 -17 -25
-14 -6 2 -15 -1 -19 -6 -3 -6 -11 -9 -16 -6 -9 6 -13 -7 -10 -37 1 -9 -4 -20
-10 -24 -8 -5 -10 -2 -7 8 4 8 2 21 -3 29 -7 11 -9 11 -9 1 0 -7 -5 -10 -11
-6 -8 4 -7 0 1 -15 12 -24 7 -53 -14 -71 -10 -8 -16 -8 -21 0 -4 6 -1 9 7 8 8
-2 12 6 10 22 -2 19 0 22 8 10 5 -8 10 -10 10 -5 0 6 -4 16 -9 23 -7 11 -10
10 -15 -3 -3 -9 -3 -21 0 -27 4 -6 1 -8 -7 -6 -8 3 -13 11 -11 17 1 6 -2 11
-8 11 -13 0 -13 -17 0 -25 16 -10 0 -34 -20 -30 -14 3 -17 -1 -13 -12 5 -13 2
-15 -15 -11 -12 4 -20 2 -17 -2 3 -5 1 -11 -5 -15 -6 -4 -7 -11 -4 -17 4 -6 1
-8 -7 -6 -8 3 -13 11 -11 17 1 7 -2 10 -8 6 -8 -5 -8 -11 1 -21 9 -11 6 -16
-12 -23 -13 -5 -18 -10 -11 -10 7 -1 11 -5 7 -11 -3 -5 -13 -7 -23 -4 -14 5
-14 4 -3 -4 15 -11 54 6 45 19 -2 5 5 13 16 19 11 6 18 15 16 19 -3 4 6 13 19
19 14 7 25 15 25 20 0 5 7 9 15 9 24 0 17 -11 -16 -26 -20 -9 -27 -16 -19 -21
8 -5 5 -9 -9 -13 -12 -3 -20 -11 -18 -19 2 -7 2 -10 0 -5 -3 4 -9 7 -14 7 -6
0 -8 -4 -4 -9 3 -5 -9 -20 -27 -32 -17 -13 -29 -18 -25 -13 3 5 -3 11 -14 11
-10 1 -19 -3 -19 -8 0 -6 -6 -7 -12 -3 -9 5 -9 2 1 -9 14 -18 26 -23 16 -8 -3
5 -1 12 4 15 5 3 11 -1 14 -8 8 -19 -13 -26 -38 -13 -20 10 -20 10 0 -12 16
-19 17 -24 5 -31 -8 -5 -33 -7 -55 -5 -36 5 -38 4 -20 -9 11 -7 24 -13 30 -12
5 2 7 1 2 -1 -4 -3 -5 -8 -3 -12 3 -4 -4 -7 -14 -7 -10 0 -17 4 -14 7 2 4 0
10 -5 14 -6 3 -8 -3 -6 -15 4 -21 -19 -29 -30 -10 -3 6 -1 10 6 10 7 0 10 3 6
6 -3 3 -11 3 -17 -1 -8 -5 -7 -12 3 -23 30 -36 28 -46 -3 -17 -18 17 -29 23
-24 15 12 -21 14 -40 4 -40 -5 0 -10 6 -13 13 -2 6 -4 0 -3 -15 1 -33 0 -32
21 -12 9 9 19 13 23 9 4 -4 3 -9 -3 -11 -36 -13 -74 -45 -69 -58 3 -8 1 -16
-3 -19 -5 -3 -9 8 -9 25 1 18 -5 32 -12 34 -7 1 -8 0 -2 -3 15 -7 12 -23 -5
-23 -8 0 -15 -5 -15 -11 0 -5 -4 -7 -10 -4 -6 4 -7 -1 -3 -11 5 -13 3 -15 -7
-9 -9 5 -11 4 -6 -4 4 -6 12 -8 18 -5 7 5 8 2 4 -5 -5 -7 -14 -10 -21 -7 -14
5 -15 -11 -2 -31 4 -6 2 -15 -4 -19 -8 -4 -9 -3 -5 5 4 6 1 14 -8 17 -8 3 -14
11 -12 17 1 7 1 9 -1 4 -3 -4 -10 -4 -16 0 -8 5 -8 2 0 -9 7 -8 9 -19 5 -23
-4 -5 -2 -6 3 -2 6 3 11 -3 11 -13 0 -10 -4 -17 -7 -14 -4 2 -10 0 -14 -6 -3
-5 -19 -8 -35 -6 -19 2 -27 -1 -23 -9 2 -7 12 -11 23 -8 21 6 36 -12 19 -23
-8 -4 -9 -3 -5 4 4 7 1 12 -9 12 -10 0 -13 -5 -9 -12 4 -7 3 -8 -4 -4 -6 3
-16 -3 -22 -14 -6 -11 -16 -17 -22 -14 -8 5 -9 1 -5 -10 4 -10 1 -19 -8 -22
-8 -4 -12 -11 -8 -17 4 -6 1 -7 -7 -2 -10 6 -10 11 4 20 14 11 15 14 1 25 -8
7 -15 11 -16 9 -8 -43 -5 -60 9 -69 9 -5 12 -10 5 -10 -6 0 -15 5 -18 10 -4 6
-11 8 -16 4 -5 -3 -7 -10 -3 -15 3 -5 2 -8 -3 -7 -4 2 -19 -5 -31 -14 -17 -11
-20 -17 -10 -21 9 -3 9 -4 -2 -3 -8 1 -16 9 -18 19 -3 12 1 15 15 11 17 -5 17
-5 0 6 -9 6 -14 17 -11 23 4 7 3 8 -2 4 -9 -9 -10 -13 -13 -42 0 -8 -15 -24
-32 -34 -30 -18 -30 -19 -6 -18 14 1 23 6 19 11 -3 5 1 6 8 1 9 -5 11 -4 6 3
-5 8 -1 10 10 5 10 -4 13 -8 7 -10 -7 -3 -11 -10 -9 -16 1 -7 1 -9 -1 -4 -3 4
-9 4 -14 1 -6 -4 -6 -11 1 -19 8 -9 6 -14 -5 -19 -9 -3 -13 -12 -10 -18 4 -7
0 -5 -8 5 -8 9 -24 16 -35 14 -31 -5 -38 -16 -8 -13 14 2 27 -3 30 -11 3 -8 2
-11 -4 -8 -5 3 -8 -9 -6 -30 1 -20 -2 -38 -6 -41 -5 -3 -2 -17 7 -30 9 -14 12
-30 8 -37 -13 -20 -10 -31 12 -44 11 -7 14 -12 7 -13 -7 0 -10 -5 -7 -10 4 -6
10 -8 14 -6 4 3 8 -5 8 -17 2 -18 0 -19 -8 -7 -8 11 -9 9 -4 -9 5 -16 4 -21
-4 -17 -7 5 -9 1 -5 -8 3 -9 10 -16 16 -16 5 0 7 -4 4 -8 -3 -5 1 -9 9 -9 8 0
15 4 15 9 0 4 -4 8 -9 8 -11 0 -8 26 4 37 4 4 5 3 1 -4 -3 -7 2 -14 14 -18 11
-3 20 -11 20 -16 0 -6 -4 -7 -10 -4 -5 3 -10 -1 -10 -10 0 -9 4 -13 10 -10 5
3 10 1 10 -4 0 -6 -5 -11 -12 -11 -6 0 -9 -3 -5 -6 3 -3 20 1 37 9 16 9 27 11
24 5 -4 -6 -8 -24 -8 -39 l-1 -28 24 22 25 22 -24 -35 c-13 -19 -17 -29 -9
-23 9 7 20 9 24 5 5 -4 5 -2 1 5 -3 6 -1 15 6 19 7 4 10 3 5 -1 -11 -13 23
-44 41 -38 14 4 15 3 2 -5 -8 -6 -18 -8 -24 -5 -5 3 -6 1 -2 -5 4 -7 2 -12 -4
-12 -7 0 -9 7 -6 16 4 10 2 13 -6 8 -7 -4 -8 -3 -4 4 5 8 2 10 -8 6 -9 -3 -16
-10 -16 -16 0 -5 4 -7 9 -4 5 3 11 -1 15 -9 3 -8 10 -15 16 -15 6 0 21 -9 33
-21 12 -11 18 -19 12 -17 -5 2 -11 0 -12 -4 -2 -5 -1 -8 2 -8 3 0 9 0 14 0 5
0 12 7 15 16 4 10 2 13 -6 8 -7 -5 -8 -3 -3 6 6 9 4 11 -5 5 -8 -5 -11 -4 -6
3 13 22 42 -2 37 -31 -1 -5 9 -6 21 -2 18 5 20 4 8 -4 -14 -10 -13 -12 19 -15
8 0 15 -7 17 -14 1 -7 0 -8 -3 -2 -2 5 -9 10 -14 10 -6 0 -7 -6 -3 -12 6 -10
5 -10 -8 -1 -8 7 -19 9 -23 5 -5 -4 -5 -2 -2 4 4 7 1 14 -7 17 -16 6 -26 -1
-26 -17 0 -6 5 -4 10 4 6 10 10 11 10 3 0 -22 2 -27 16 -48 8 -11 22 -20 32
-20 9 0 16 -6 14 -12 -1 -7 2 -13 8 -13 5 0 10 6 10 14 0 8 5 18 11 22 7 4 9
0 5 -14 -4 -11 -2 -23 4 -27 6 -3 7 -11 4 -17 -4 -6 2 -6 15 1 17 10 21 9 21
-4 0 -10 5 -13 13 -9 8 6 8 3 -1 -9 -12 -15 -11 -16 16 -12 24 3 30 0 25 -12
-5 -12 -7 -12 -14 -1 -5 7 -9 9 -9 5 0 -5 9 -20 20 -34 11 -14 17 -30 13 -36
-3 -6 -1 -7 5 -3 7 4 13 2 13 -3 1 -6 2 -15 3 -20 0 -5 5 -13 10 -18 5 -4 6
-3 2 4 -4 8 2 12 16 11 45 0 68 -9 68 -24 0 -11 6 -14 23 -9 16 5 13 1 -10
-15 -35 -23 -42 -33 -18 -24 11 5 14 1 9 -12 -5 -15 -4 -16 4 -4 6 8 8 18 6
22 -3 4 3 5 12 1 11 -4 15 -3 11 4 -5 7 1 9 15 5 19 -5 20 -7 6 -10 -10 -2
-18 -8 -18 -13 0 -6 -4 -7 -10 -4 -5 3 -10 1 -10 -4 0 -14 6 -14 33 0 12 7 19
8 15 4 -4 -4 0 -13 9 -20 13 -9 13 -14 3 -20 -9 -6 -11 -4 -5 5 5 9 4 11 -3 6
-7 -4 -12 -2 -12 4 0 6 -4 8 -10 5 -5 -3 -10 -11 -10 -16 0 -6 4 -7 10 -4 6 3
10 2 10 -3 0 -6 11 -9 25 -8 15 0 23 6 21 13 -3 7 0 15 6 19 6 4 8 3 4 -4 -3
-6 2 -18 11 -28 17 -17 17 -18 0 -11 -15 6 -17 3 -11 -15 6 -20 5 -21 -9 -9
-9 7 -14 18 -10 25 3 6 2 7 -2 3 -14 -12 -15 -37 -2 -34 7 1 11 -4 9 -10 -3
-17 15 -17 21 0 2 6 8 9 12 5 4 -4 2 -16 -6 -25 -13 -16 -12 -17 3 -5 10 8 19
9 22 3 3 -5 0 -12 -6 -15 -7 -3 -2 -3 12 0 25 5 25 5 5 -12 -16 -14 -17 -16
-2 -11 9 4 17 2 17 -3 0 -6 4 -10 8 -10 5 0 9 7 9 15 0 8 -5 11 -10 8 -6 -3
-7 -1 -3 6 4 6 1 14 -8 17 -8 3 -22 16 -30 30 -14 20 -14 23 -1 18 8 -4 15
-12 15 -20 0 -8 4 -14 8 -14 5 0 19 -9 32 -20 13 -12 18 -20 10 -20 -7 0 -10
-3 -6 -7 7 -8 11 -9 37 -12 6 0 9 -7 6 -15 -3 -7 0 -20 6 -27 10 -12 9 -12 -3
-1 -7 6 -18 12 -24 12 -15 0 27 -29 42 -30 7 0 11 4 8 8 -7 11 31 8 41 -3 5
-4 2 -5 -4 -1 -7 4 -13 2 -13 -4 0 -6 -4 -8 -10 -5 -5 3 -10 2 -10 -4 0 -6 -6
-8 -14 -5 -8 3 -17 1 -20 -4 -3 -5 6 -8 19 -6 14 1 25 -2 25 -7 0 -5 -4 -9
-10 -9 -5 0 -10 -5 -10 -11 0 -5 4 -8 9 -5 5 3 12 -1 15 -10 3 -8 10 -13 15
-9 5 3 17 -5 27 -17 10 -14 14 -16 11 -6 -3 9 1 19 9 22 9 3 12 11 8 17 -5 8
-3 9 5 4 9 -5 10 -10 2 -18 -16 -16 -13 -31 3 -18 20 16 25 3 21 -49 -3 -34
-1 -41 6 -27 6 9 15 14 21 11 7 -4 8 -2 4 5 -4 6 -12 8 -18 5 -7 -4 -8 -2 -4
4 10 16 38 2 32 -15 -3 -8 -6 -17 -6 -19 0 -3 -4 -2 -10 1 -6 3 -7 -1 -4 -10
6 -14 8 -14 20 2 7 10 14 14 14 9 0 -5 7 -3 15 4 10 9 15 9 15 1 0 -6 -4 -11
-8 -11 -5 0 -9 -7 -9 -15 0 -20 14 -19 26 3 6 9 11 12 11 5 0 -6 -5 -15 -10
-18 -7 -4 -7 -12 0 -25 14 -26 13 -30 -7 -23 -12 3 -10 -1 5 -12 13 -9 31 -18
40 -20 10 -1 16 -10 14 -21 -2 -15 -1 -16 7 -5 6 10 3 23 -12 43 -11 15 -24
28 -29 28 -4 0 -8 7 -8 15 0 8 5 15 10 15 6 0 9 -6 8 -12 -2 -7 3 -12 10 -10
6 1 11 -1 11 -5 -3 -21 2 -33 13 -27 7 4 8 3 4 -5 -4 -6 0 -14 9 -17 13 -5 14
-9 4 -15 -8 -4 -11 -11 -7 -14 3 -3 13 1 22 10 22 22 21 7 -1 -19 -18 -20 -18
-20 12 -2 17 10 25 13 18 6 -14 -15 -2 -44 31 -72 18 -15 19 -19 6 -28 -8 -5
-10 -10 -5 -10 6 0 16 5 23 12 9 9 18 9 38 -1 25 -11 26 -13 9 -31 -16 -18
-16 -18 4 -13 12 3 21 9 21 14 0 5 6 9 13 9 6 -1 1 -10 -12 -20 -23 -20 -23
-20 -2 -20 12 0 21 6 21 13 1 6 7 1 14 -12 10 -17 15 -20 18 -10 3 8 5 2 4
-13 -1 -24 -2 -25 -17 -10 -9 10 -15 20 -12 24 2 4 -3 5 -13 1 -15 -5 -15 -7
0 -15 9 -5 13 -14 10 -20 -4 -6 -3 -8 3 -5 6 4 18 -2 28 -13 10 -11 15 -20 11
-20 -4 0 -2 -9 4 -21 7 -12 18 -18 26 -15 8 3 17 -1 20 -9 4 -8 11 -15 16 -15
6 0 5 6 -2 15 -7 8 -11 15 -9 16 2 0 15 2 28 3 21 3 22 1 8 -9 -9 -7 -14 -15
-10 -18 3 -4 12 -2 20 4 9 9 13 8 13 0 0 -6 -4 -11 -10 -11 -5 0 -10 -4 -10
-10 0 -5 8 -7 18 -4 14 5 15 4 2 -5 -11 -8 -18 -6 -28 7 -12 15 -13 14 -8 -11
4 -21 1 -27 -8 -24 -7 3 -13 -1 -13 -9 0 -10 9 -8 34 7 19 12 35 20 36 18 1
-2 11 -15 22 -29 16 -19 16 -22 3 -11 -25 19 -23 -4 2 -29 16 -16 17 -20 5
-20 -8 0 -15 4 -15 10 0 5 -6 8 -12 6 -7 -1 -10 -1 -5 1 4 3 5 9 1 14 -8 13
-43 -32 -37 -48 3 -7 9 -10 14 -7 5 3 9 0 9 -6 0 -6 5 -8 12 -4 7 4 8 3 4 -4
-4 -6 -12 -9 -19 -6 -7 2 -24 -7 -37 -22 -24 -26 -24 -26 -3 -20 12 4 24 2 29
-5 4 -8 3 -9 -4 -5 -14 8 -69 -19 -75 -36 -2 -7 -3 -5 -2 4 3 17 -20 32 -35
23 -5 -3 -7 -12 -3 -20 3 -10 0 -14 -8 -12 -8 2 -11 2 -6 0 4 -3 4 -9 1 -14
-3 -6 -11 -5 -20 2 -10 8 -14 8 -14 0 0 -6 5 -11 11 -11 5 0 7 -6 3 -12 -4 -7
3 -4 16 7 16 14 24 16 27 7 3 -6 10 -9 15 -6 7 4 8 2 4 -5 -6 -9 -11 -9 -21
-1 -11 9 -18 5 -35 -22 -11 -18 -20 -27 -20 -20 0 6 -4 12 -9 12 -11 0 -9 -19
4 -40 7 -12 6 -13 -7 -3 -8 7 -19 9 -24 5 -4 -4 -2 2 6 13 8 11 10 17 6 13 -5
-4 -16 -2 -25 5 -14 11 -14 10 -2 -5 7 -10 10 -18 5 -18 -5 0 0 -8 11 -16 19
-15 19 -15 1 -12 -10 2 -21 -3 -24 -11 -3 -10 0 -11 9 -5 12 7 12 5 0 -9 -14
-18 -22 -22 -20 -9 4 21 -3 31 -20 29 -11 0 -17 -5 -14 -11 4 -5 0 -7 -8 -4
-10 4 -14 -3 -14 -23 -1 -15 3 -25 7 -23 5 3 5 10 2 16 -5 7 -2 8 6 3 9 -5 11
-4 6 3 -5 8 -2 10 8 6 19 -7 21 -25 4 -21 -7 1 -12 -4 -10 -11 1 -8 -2 -11 -7
-8 -5 3 -11 -1 -15 -9 -6 -17 -26 -20 -26 -4 0 5 5 7 10 4 6 -3 10 -1 10 4 0
6 -4 11 -9 11 -4 0 -7 12 -5 26 1 14 0 23 -4 20 -6 -6 -8 -12 -15 -48 -2 -10
-11 -24 -22 -31 -20 -16 -11 -42 12 -33 8 3 11 1 8 -4 -4 -6 -12 -9 -18 -8 -7
2 -13 -2 -14 -7 0 -6 3 -9 9 -7 5 1 6 -3 3 -9 -5 -7 -12 -6 -24 5 -13 14 -14
18 -2 25 9 6 10 11 2 15 -6 4 -8 13 -4 19 10 16 13 41 5 32 -4 -4 -8 -11 -8
-16 -1 -5 -3 -12 -4 -16 -4 -13 -7 -27 -8 -41 -2 -10 -7 -10 -23 -1 -13 6 -19
7 -15 1 3 -6 0 -13 -6 -15 -10 -4 -10 -6 0 -6 7 -1 11 -5 7 -11 -3 -5 -11 -8
-18 -6 -7 1 -8 1 -4 -2 4 -2 1 -9 -7 -16 -19 -14 -5 -43 15 -31 10 7 9 10 -3
14 -13 5 -8 12 22 33 30 22 39 25 43 13 4 -10 1 -12 -10 -8 -11 4 -14 2 -9 -5
5 -8 1 -10 -10 -5 -13 5 -15 3 -9 -7 6 -9 4 -11 -5 -5 -8 5 -11 3 -8 -6 3 -8
12 -13 19 -11 8 2 10 0 6 -5 -5 -4 -13 -9 -18 -9 -5 -1 -10 -3 -11 -4 -2 -1
-14 -4 -28 -6 -47 -7 -59 -10 -66 -16 -3 -4 -12 -4 -20 -1 -8 3 -14 0 -14 -6
0 -6 6 -10 13 -8 7 1 11 -6 9 -16 -2 -10 2 -25 9 -33 8 -10 8 -14 0 -14 -6 0
-11 5 -11 11 0 5 -5 7 -10 4 -8 -5 -7 -12 2 -23 12 -16 11 -16 -6 -2 -18 14
-19 13 -13 -2 3 -10 2 -20 -4 -24 -20 -12 -22 6 -3 33 20 31 27 56 13 47 -5
-3 -7 -8 -5 -12 6 -10 -21 -32 -28 -24 -4 3 -4 -2 0 -12 5 -13 4 -17 -3 -13
-6 4 -19 0 -28 -9 -12 -12 -13 -19 -4 -30 12 -15 3 -38 -12 -29 -17 11 -31 -6
-18 -21 9 -11 9 -14 0 -14 -7 0 -9 -4 -6 -10 3 -6 1 -10 -5 -10 -7 0 -10 6 -7
13 3 8 1 20 -5 28 -8 11 -9 10 -4 -3 3 -10 1 -18 -4 -18 -6 0 -10 5 -10 10 0
6 -5 10 -11 10 -8 0 -9 -4 0 -13 6 -8 8 -17 4 -20 -9 -10 -25 -9 -19 1 2 4 -6
8 -19 8 -13 0 -21 -4 -19 -8 3 -5 9 -6 14 -3 4 3 13 -1 19 -9 9 -10 7 -17 -5
-27 -10 -8 -19 -12 -21 -11 -3 2 -8 1 -11 -3 -4 -4 -1 -5 7 -3 10 2 16 -7 17
-27 2 -16 0 -25 -4 -20 -4 6 -14 10 -22 10 -8 0 -14 8 -13 18 1 18 1 18 -15 0
-32 -35 -47 -57 -35 -49 19 11 16 -9 -4 -25 -10 -8 -14 -9 -10 -2 4 6 2 15 -5
19 -7 4 -10 4 -6 -1 4 -4 3 -16 -2 -26 -8 -13 -6 -21 7 -29 15 -9 14 -10 -6
-4 -13 3 -21 2 -18 -3 8 -12 -10 -39 -20 -30 -4 5 -3 11 2 15 15 11 16 30 1
35 -10 4 -12 -1 -9 -16 3 -13 1 -17 -4 -11 -6 9 -11 8 -21 -2 -7 -8 -10 -14
-7 -14 3 0 0 -6 -7 -14 -7 -8 -17 -11 -22 -8 -5 3 -6 0 -2 -7 6 -9 11 -9 22 0
10 8 14 8 14 0 0 -6 -5 -11 -11 -11 -6 0 -7 -6 -2 -12 4 -7 -5 -5 -20 5 -32
21 -50 23 -20 2 19 -14 21 -19 11 -41 -8 -18 -14 -21 -20 -12 -6 10 -8 10 -9
-2 -1 -8 -1 -18 0 -22 1 -8 -15 -12 -31 -9 -5 0 -8 -6 -8 -14 0 -8 -5 -15 -11
-15 -5 0 -7 4 -4 10 4 6 -1 7 -11 3 -10 -4 -15 -2 -11 4 3 5 0 10 -7 10 -8 0
-13 -7 -11 -16 1 -9 8 -15 14 -13 9 2 9 -3 2 -16 -12 -23 -41 -48 -41 -36 0 5
-5 2 -10 -6 -6 -10 -4 -20 8 -33 15 -17 12 -16 -23 3 -39 21 -39 21 -16 1 28
-25 21 -27 -20 -5 -30 15 -30 15 -19 -5 6 -12 13 -21 16 -21 3 0 2 6 -2 13 -5
8 -2 8 9 -2 9 -7 17 -16 17 -19 0 -3 -3 -2 -7 1 -10 10 -34 -14 -26 -27 4 -6
-2 -4 -12 4 -17 14 -18 13 -12 -2 4 -12 2 -15 -8 -11 -11 4 -12 10 -4 25 8 15
13 17 19 8 5 -8 10 -8 14 -2 3 5 -2 13 -11 17 -10 3 -19 1 -21 -5 -2 -6 -14
-20 -26 -31 -14 -14 -16 -18 -5 -14 32 12 28 -13 -8 -50 -20 -20 -33 -30 -30
-21 4 9 2 16 -4 16 -6 0 -7 5 -4 11 4 6 14 8 22 5 9 -4 11 -2 7 6 -4 6 -3 8 3
5 6 -4 17 1 24 11 13 15 12 16 -3 4 -11 -9 -18 -10 -23 -2 -3 5 -12 10 -18 10
-8 0 -7 -3 2 -9 11 -7 9 -10 -7 -15 -16 -6 -20 -14 -17 -37 2 -16 -1 -27 -6
-24 -8 6 -13 -8 -10 -27 0 -4 -7 -4 -17 -1 -15 6 -16 5 -2 -12 9 -11 10 -16 3
-11 -7 4 -13 2 -13 -3 0 -11 -35 -10 -46 2 -4 3 3 4 15 2 14 -2 19 0 15 7 -4
6 -3 9 2 6 5 -4 10 6 11 20 l1 27 -14 -27 c-10 -18 -20 -26 -34 -23 -11 2 -22
-1 -26 -6 -3 -5 -1 -8 4 -7 6 2 10 -1 10 -7 0 -5 -5 -8 -11 -7 -29 9 -49 11
-43 4 7 -7 11 -8 37 -11 5 0 8 -5 4 -10 -3 -5 0 -13 6 -17 8 -5 9 -3 4 6 -6 9
-4 11 5 5 9 -6 11 -4 5 5 -6 9 -4 11 5 5 9 -5 11 -4 6 3 -5 8 -2 10 8 6 9 -3
16 -10 16 -16 0 -5 -4 -7 -9 -4 -5 3 -14 -1 -21 -9 -8 -10 -21 -13 -33 -9 -15
5 -19 3 -14 -10 4 -9 -2 -21 -15 -30 -11 -8 -17 -19 -13 -25 3 -6 0 -11 -7
-11 -10 0 -9 -3 1 -9 12 -8 12 -12 2 -25 -13 -15 -45 -11 -35 5 3 5 10 6 16 3
7 -5 8 -2 4 5 -6 9 -12 9 -25 -3 -10 -9 -21 -14 -24 -11 -4 3 -4 2 -1 -2 5 -8
9 -9 35 -12 5 0 7 -6 4 -11 -3 -5 -1 -10 5 -10 6 0 9 -4 6 -8 -3 -5 2 -9 10
-9 10 0 11 4 4 11 -14 14 -13 29 2 20 6 -4 8 -3 4 4 -3 6 -1 14 5 17 5 4 8 14
4 24 -5 12 -3 13 6 4 6 -6 8 -17 3 -25 -14 -23 -15 -50 -2 -42 10 6 11 4 0 -7
-6 -7 -12 -18 -12 -24 1 -5 10 1 20 14 11 13 20 20 20 15 0 -4 -10 -18 -21
-31 -18 -18 -20 -25 -9 -38 7 -8 16 -12 21 -9 5 3 9 2 9 -1 0 -8 -26 -35 -31
-32 -3 1 -1 -2 3 -7 4 -5 2 -18 -3 -28 -6 -11 -8 -22 -5 -26 3 -3 6 0 6 7 0 7
4 10 9 7 4 -3 7 6 5 19 -1 14 1 25 6 25 4 0 8 -11 9 -25 1 -14 1 -36 2 -50 1
-14 5 -25 11 -25 5 0 6 -4 3 -10 -3 -5 -1 -10 4 -10 14 0 14 13 -1 28 -9 9 -9
12 1 12 7 0 10 4 7 8 -3 5 2 9 10 9 10 0 11 -4 4 -11 -17 -17 -11 -29 8 -15 9
7 14 9 10 5 -4 -5 4 -19 17 -32 14 -13 25 -28 25 -34 0 -9 14 -14 33 -11 5 1
5 -4 1 -10 -5 -9 -2 -10 12 -5 10 4 15 4 11 0 -4 -4 -2 -13 5 -21 8 -11 7 -12
-6 -7 -16 6 -21 -4 -17 -35 2 -8 -2 -10 -10 -5 -8 4 -10 3 -5 -5 10 -16 29 -2
22 16 -5 11 -2 13 9 9 9 -3 18 1 21 9 6 16 24 11 24 -6 0 -6 -5 -7 -12 -3 -7
5 -9 2 -5 -9 4 -10 2 -14 -6 -11 -8 3 -13 -5 -14 -18 0 -13 1 -17 4 -10 3 6
11 12 19 12 8 0 14 6 14 13 0 9 3 8 9 -2 5 -7 11 -9 13 -5 3 5 3 4 2 -3 -2 -6
2 -13 9 -16 6 -2 3 -6 -7 -10 -11 -5 -15 -3 -10 5 5 7 3 8 -6 3 -9 -5 -11 -4
-6 3 5 8 2 10 -8 6 -14 -5 -14 -8 -1 -21 9 -8 13 -18 10 -23 -3 -5 -1 -12 5
-15 6 -4 10 -3 9 2 -3 20 2 34 11 28 6 -4 8 -10 5 -15 -3 -5 -1 -11 5 -15 6
-4 8 -11 4 -16 -3 -5 -10 -6 -16 -3 -7 4 -8 2 -4 -5 5 -8 12 -9 19 -2 19 15
62 18 60 3 -2 -6 2 -12 7 -12 6 0 10 -5 10 -11 0 -5 -10 -3 -22 5 -12 9 -27
16 -33 16 -5 0 -2 -5 7 -11 10 -5 15 -16 12 -24 -4 -8 -1 -15 6 -15 6 0 8 5 5
10 -3 6 -2 10 3 10 17 0 22 -13 10 -27 -8 -10 -8 -17 1 -26 10 -9 11 -8 5 8
-4 11 -4 17 1 13 4 -4 14 -3 21 3 13 11 54 -7 54 -25 0 -4 -6 -3 -13 3 -8 6
-18 7 -22 3 -5 -4 -5 -1 0 7 5 9 4 12 -3 7 -7 -4 -17 -17 -22 -29 -9 -19 -9
-20 2 -7 16 19 40 20 46 1 3 -8 0 -11 -5 -8 -5 3 -10 -1 -10 -9 0 -11 6 -9 23
7 13 12 21 25 19 30 -3 4 -1 10 4 14 6 3 8 -4 6 -15 -3 -15 3 -24 21 -30 15
-6 22 -15 18 -21 -5 -8 1 -10 19 -7 15 3 24 2 22 -2 -3 -4 -16 -10 -30 -12
-13 -3 -22 -2 -20 2 3 4 -3 7 -12 6 -10 0 -18 6 -19 14 0 8 -2 19 -2 24 -2 11
-31 -25 -32 -38 0 -6 7 -1 15 10 10 12 13 14 10 3 -4 -10 3 -20 20 -27 16 -7
23 -17 19 -24 -4 -7 -3 -8 4 -4 7 4 12 0 13 -11 0 -11 3 -13 6 -5 3 7 0 19 -6
26 -8 9 -7 13 4 13 7 0 13 -5 12 -10 -1 -5 4 -12 12 -15 9 -3 11 0 6 8 -4 7 4
4 19 -5 14 -9 24 -21 21 -25 -3 -5 5 -10 17 -12 21 -3 21 -4 -4 -9 -19 -4 -25
-3 -21 5 4 6 -2 4 -13 -4 -29 -22 -30 -24 -13 -17 18 6 39 -9 35 -27 -2 -6 -1
-8 1 -3 8 12 23 8 23 -7 0 -8 9 -18 20 -21 15 -5 19 -12 16 -28 -3 -12 -3 -16
0 -9 3 6 10 9 15 6 6 -3 5 -12 -3 -22 -10 -14 -10 -15 2 -5 16 14 50 17 50 5
0 -4 -6 -14 -12 -21 -11 -11 -10 -12 1 -6 11 6 13 4 8 -9 -4 -11 -3 -15 4 -11
6 4 8 13 5 21 -3 8 -1 14 4 14 8 0 23 -33 25 -52 0 -4 5 -12 11 -18 8 -8 13
-7 17 4 4 11 1 13 -11 9 -18 -7 -17 -5 12 17 13 10 17 10 12 3 -5 -9 -1 -13
11 -14 16 0 16 -1 -2 -9 -11 -5 -16 -9 -11 -9 5 -1 4 -7 -2 -14 -7 -8 -7 -18
-2 -27 7 -10 10 -11 10 -2 0 6 8 12 18 12 10 0 24 6 31 13 8 6 6 0 -3 -14 -14
-23 -15 -28 -2 -38 8 -7 12 -20 9 -29 -7 -18 -5 -17 17 12 12 16 12 18 1 11
-10 -6 -12 -4 -6 5 6 9 4 11 -5 5 -9 -6 -11 -4 -5 5 6 9 4 11 -6 5 -12 -8 -12
-6 0 8 14 18 26 24 17 8 -9 -13 22 -34 39 -27 9 3 13 2 10 -4 -3 -6 -13 -10
-21 -10 -8 0 -14 -5 -14 -11 0 -6 9 -8 22 -3 20 6 21 5 9 -10 -8 -9 -11 -19
-7 -23 3 -4 13 2 21 13 15 19 15 19 8 0 -4 -11 -2 -17 3 -14 5 4 18 0 29 -8
16 -12 17 -16 5 -27 -10 -10 -11 -9 -5 2 6 10 4 12 -5 6 -9 -6 -11 -4 -5 5 6
9 4 11 -5 5 -8 -5 -11 -4 -6 3 7 12 -19 10 -31 -2 -4 -4 -3 -7 2 -6 22 5 29
-1 15 -11 -13 -9 -12 -10 2 -5 10 3 20 1 23 -5 4 -5 11 -7 16 -4 9 6 13 -7 10
-32 -2 -18 16 -25 23 -7 4 10 2 13 -6 8 -7 -4 -8 -3 -4 4 4 7 11 12 17 12 12
0 12 -37 -1 -45 -13 -8 -3 -25 13 -25 8 0 8 3 -2 9 -8 5 -9 11 -3 15 6 3 13 2
17 -4 3 -5 11 -10 18 -10 6 0 2 6 -9 14 -10 8 -16 18 -11 22 4 4 7 2 7 -6 0
-10 3 -10 14 -1 11 9 16 9 22 0 4 -7 3 -9 -4 -5 -7 4 -10 -2 -8 -16 5 -40 16
-56 37 -51 10 3 17 9 14 12 -2 4 2 8 10 8 8 0 11 -5 7 -11 -11 -19 -12 -46 -1
-46 5 0 7 5 4 10 -3 6 -1 10 4 10 6 0 11 -4 11 -9 0 -12 59 -11 85 1 18 8 19
8 3 -5 -23 -18 -12 -30 15 -16 15 8 18 8 12 -1 -5 -8 -3 -11 6 -8 8 3 13 11
11 17 -1 8 2 9 10 5 21 -13 52 -10 66 6 11 13 11 13 7 0 -4 -11 1 -16 16 -17
18 -2 19 0 7 14 -12 15 -11 15 9 2 12 -7 18 -16 12 -20 -6 -3 -4 -11 5 -19 9
-7 13 -17 9 -24 -3 -6 -2 -7 2 -3 12 10 15 38 4 31 -5 -3 -9 -1 -9 4 0 17 13
22 29 9 14 -10 14 -10 4 4 -7 9 -9 20 -5 25 4 4 -1 2 -11 -5 -9 -7 -17 -9 -17
-3 0 5 6 12 12 14 19 7 39 -2 32 -14 -5 -7 -2 -8 6 -3 10 6 12 4 7 -8 -4 -11
-2 -14 9 -10 11 4 12 8 3 19 -7 8 -9 17 -5 21 3 4 13 -2 22 -13 15 -19 15 -19
6 1 -11 23 -6 42 15 67 8 9 16 24 17 34 4 24 20 28 36 9 8 -10 9 -15 1 -15 -6
0 -11 5 -11 10 0 6 -5 10 -11 10 -5 0 -7 -5 -4 -11 4 -6 -4 -22 -16 -36 -13
-15 -19 -23 -12 -19 6 3 14 -1 17 -11 3 -11 4 -8 3 7 -1 16 3 24 11 22 8 -1
11 2 8 7 -6 10 30 24 54 21 11 -1 10 2 -4 13 -18 13 -18 14 5 20 13 3 20 9 17
12 -3 4 -16 1 -28 -5 -16 -9 -25 -9 -31 -1 -5 6 -6 9 -3 6 4 -2 19 2 34 10 18
9 30 11 37 4 7 -7 12 -5 16 5 4 11 1 13 -11 9 -14 -5 -15 -3 -4 8 6 7 12 18
12 24 0 5 -5 3 -11 -5 -9 -12 -10 -13 -7 0 6 20 56 21 69 1 8 -13 9 -13 6 -1
-2 8 -1 22 4 31 6 11 4 21 -6 29 -17 14 -20 30 -4 30 5 0 7 -4 4 -10 -3 -5 0
-10 9 -10 8 0 16 -3 19 -7 2 -5 2 -2 1 4 -2 7 4 16 12 21 13 7 13 10 -2 23
-16 12 -17 12 -11 -3 3 -10 1 -20 -5 -24 -7 -4 -8 -3 -4 4 4 7 2 12 -5 12 -17
0 7 25 24 25 7 1 11 7 9 15 -2 8 0 12 4 8 4 -4 14 -2 22 5 13 9 14 9 8 0 -4
-8 -2 -13 4 -13 6 0 10 8 8 18 -2 9 -10 16 -17 14 -7 -1 -9 2 -6 8 5 8 13 5
26 -6 17 -15 19 -15 14 -2 -4 9 -1 19 4 23 6 3 9 11 6 16 -3 5 1 6 10 3 14 -6
14 -8 -2 -21 -17 -14 -17 -14 1 -5 10 5 27 7 37 5 11 -3 19 0 19 6 0 6 -8 8
-17 4 -16 -6 -16 -5 -4 10 9 11 18 14 25 8 6 -5 20 -5 30 -2 19 7 19 8 0 15
-19 8 -19 8 0 15 19 7 19 8 -2 13 -12 4 -20 2 -17 -2 3 -4 -5 -6 -17 -2 -14 3
-17 7 -9 10 20 7 50 39 43 47 -4 3 2 3 12 -1 14 -5 17 -4 12 4 -4 7 -2 12 3
12 16 0 13 -20 -4 -26 -8 -4 -12 -10 -9 -15 3 -5 -2 -6 -10 -3 -9 3 -16 2 -16
-4 0 -16 31 -7 42 12 8 14 12 15 26 4 10 -8 13 -9 9 -1 -4 7 2 18 15 27 12 9
17 16 11 16 -6 0 -19 12 -29 27 -12 20 -13 24 -3 16 11 -9 19 -9 26 -2 8 8 13
7 18 -2 6 -8 4 -10 -5 -4 -9 6 -11 4 -5 -5 6 -9 4 -11 -6 -5 -12 7 -12 6 0 -6
10 -11 15 -11 18 -1 3 6 9 9 15 6 5 -4 2 6 -8 22 -18 29 -18 29 2 12 13 -11
24 -14 34 -8 8 5 19 6 25 2 5 -3 3 2 -4 12 -13 16 -16 16 -26 3 -10 -14 -13
-13 -23 4 -7 11 -8 19 -2 19 5 0 10 -5 10 -11 0 -5 5 -7 10 -4 6 4 8 10 5 15
-3 5 -1 11 5 15 6 4 8 11 4 16 -3 5 -2 9 3 8 4 -1 11 0 16 1 4 1 10 3 15 4 14
2 50 44 44 51 -4 3 2 3 12 -1 17 -7 17 -8 -5 -25 -13 -10 -20 -19 -15 -19 6 0
2 -6 -8 -13 -16 -12 -16 -14 -2 -14 14 0 20 10 17 29 0 4 8 10 19 13 19 6 25
17 21 39 -1 5 5 6 14 2 9 -3 13 -2 10 4 -3 6 -1 10 4 10 6 0 11 5 11 11 0 8
-5 7 -15 -1 -13 -10 -18 -11 -28 -1 -9 10 -8 11 8 5 18 -7 19 -6 5 12 -9 12
-9 15 -1 7 9 -8 21 -9 38 -2 14 5 28 7 33 4 5 -3 11 -1 14 4 4 5 2 12 -4 16
-6 4 -7 11 -4 17 4 7 2 8 -5 4 -6 -4 -8 -12 -5 -18 4 -7 2 -8 -4 -4 -7 4 -12
3 -12 -1 0 -5 -9 -9 -20 -10 -11 -1 -20 2 -20 8 0 5 3 8 8 8 21 -4 34 3 29 15
-3 8 1 13 11 12 10 0 16 5 14 14 -2 8 -1 12 3 8 8 -8 25 6 44 37 12 20 12 20
6 -1 -3 -13 1 -26 12 -35 9 -8 14 -9 10 -2 -4 6 -1 14 5 16 10 4 10 6 0 6 -7
1 -10 5 -7 11 3 5 1 20 -5 32 -11 22 -10 22 4 4 9 -11 30 -21 47 -22 28 -2 29
-1 12 11 -16 13 -16 14 -2 15 9 0 20 7 23 16 9 24 7 36 -4 29 -6 -4 -8 -10 -5
-15 3 -5 -5 -14 -17 -21 -13 -7 -27 -17 -31 -23 -6 -7 -7 -6 -4 4 2 8 14 21
28 27 13 7 18 13 10 13 -9 0 -5 8 10 21 13 12 23 26 21 32 -2 6 4 5 12 -3 9
-7 16 -9 16 -5 0 4 8 1 17 -6 10 -8 14 -9 10 -2 -4 6 1 18 13 26 11 7 17 17
13 20 -3 4 1 7 10 7 9 0 17 4 17 10 0 16 -24 7 -37 -15 -10 -18 -12 -17 -11
13 1 22 4 29 9 20 7 -10 9 -10 9 2 0 13 1 13 10 0 5 -8 10 -11 10 -5 0 5 5 4
12 -3 7 -7 17 -12 22 -12 6 0 4 4 -4 10 -19 12 -9 21 29 24 17 1 34 6 38 11 4
4 3 5 -3 2 -22 -13 -23 22 -1 38 12 8 18 15 13 15 -5 0 -3 6 3 14 7 8 21 13
32 11 11 -2 17 0 14 6 -4 5 -11 7 -16 4 -5 -4 -9 1 -9 10 0 10 -5 13 -12 9 -7
-4 -8 -3 -4 5 5 8 16 5 39 -11 21 -14 27 -16 19 -5 -8 9 -12 22 -9 29 2 7 -3
22 -12 33 -14 17 -14 18 0 8 11 -9 19 -9 26 -2 8 8 13 7 18 -2 6 -8 4 -10 -5
-4 -9 6 -11 4 -5 -5 5 -8 4 -11 -2 -7 -12 7 -10 -29 2 -40 4 -5 5 -3 2 3 -8
14 31 66 44 59 5 -4 9 -1 9 5 0 7 -6 10 -12 7 -8 -3 -14 5 -14 20 -2 22 -1 23
12 6 13 -17 14 -17 11 2 -1 11 -6 27 -11 35 -7 12 -6 13 4 3 10 -9 18 -8 38 5
21 13 24 14 20 2 -3 -8 -11 -14 -17 -12 -7 1 -9 -2 -5 -9 4 -7 3 -9 -4 -5 -6
3 -14 1 -18 -5 -4 -8 -3 -9 4 -5 7 4 12 0 13 -11 0 -14 2 -15 6 -3 3 8 12 20
20 27 23 18 8 46 -19 39 -13 -3 -17 -3 -10 0 6 3 9 11 6 16 -5 7 -2 8 5 4 7
-5 21 0 32 10 10 9 19 14 19 11 0 -4 10 -3 23 2 14 6 30 5 41 -1 15 -8 17 -8
11 2 -6 9 -4 12 6 8 10 -4 15 1 16 16 0 11 -1 15 -4 9 -3 -7 -9 -13 -14 -13
-6 0 -6 8 1 19 5 11 8 26 5 34 -4 8 0 14 9 14 8 0 12 -6 9 -14 -6 -14 35 -50
50 -45 4 1 7 -3 7 -8 0 -6 -4 -10 -10 -10 -5 0 -10 -5 -10 -11 0 -8 4 -9 13 0
8 6 17 7 22 3 4 -4 2 3 -4 16 -7 12 -17 20 -23 16 -7 -5 -8 -2 -3 6 6 9 4 11
-5 5 -9 -5 -11 -4 -6 4 4 6 4 10 -1 9 -4 -2 -10 1 -13 6 -3 5 4 10 16 11 14 1
21 -4 20 -14 -1 -9 5 -15 14 -13 8 2 12 0 8 -4 -8 -8 22 -64 34 -64 4 0 8 -5
8 -10 0 -6 -8 -5 -19 2 -11 7 -17 16 -14 21 3 5 -4 4 -16 -2 -11 -7 -21 -17
-20 -24 0 -9 2 -9 6 1 2 6 9 12 15 12 6 0 7 -7 4 -16 -5 -14 -4 -15 9 -4 11 9
15 9 15 1 0 -8 8 -10 19 -6 15 5 24 -1 36 -25 9 -17 13 -35 10 -39 -3 -5 -2
-16 1 -25 6 -15 8 -15 19 1 10 13 10 20 2 25 -6 4 -8 10 -5 14 4 3 14 -1 23
-10 9 -9 12 -16 7 -16 -6 0 -12 -7 -16 -15 -3 -10 5 -20 25 -30 18 -10 27 -20
23 -28 -4 -7 1 -5 12 4 10 9 26 19 34 23 8 4 4 -1 -9 -12 -20 -16 -22 -22 -12
-38 11 -19 11 -19 9 0 -5 31 16 28 35 -5 14 -26 20 -29 32 -19 10 9 15 9 15 1
0 -6 -5 -11 -11 -11 -5 0 -7 -5 -4 -10 5 -8 12 -7 23 2 9 7 13 8 9 2 -3 -6 0
-19 7 -29 11 -15 11 -21 -2 -36 -8 -9 -21 -15 -28 -12 -8 3 -14 1 -14 -4 0
-10 45 -10 88 1 12 3 20 1 17 -4 -3 -4 -2 -10 3 -12 4 -1 18 -18 31 -35 19
-28 25 -31 42 -22 19 9 19 9 10 -10 -7 -13 -8 -22 -1 -26 5 -3 10 -1 10 4 0 6
5 11 12 11 9 0 9 -3 0 -12 -20 -20 -41 -18 -37 4 3 12 2 18 -2 14 -3 -3 -11
-1 -18 4 -8 7 -12 5 -12 -5 0 -7 3 -13 6 -12 3 1 6 -2 6 -8 0 -5 -4 -9 -10 -7
-5 2 -7 0 -2 -4 13 -14 77 -15 77 -1 0 6 9 -3 20 -20 11 -18 24 -33 30 -33 5
0 10 -5 10 -11 0 -8 -6 -7 -17 2 -10 7 -15 9 -11 5 4 -5 3 -15 -3 -23 -9 -9
-8 -13 0 -13 6 0 11 5 11 11 0 5 5 7 10 4 8 -5 7 -12 -2 -23 -11 -13 -9 -13
13 1 25 17 39 14 39 -7 0 -6 -4 -5 -9 2 -6 11 -10 10 -19 0 -8 -11 -6 -14 11
-14 12 0 25 5 29 10 5 7 8 6 8 -2 0 -7 7 -20 15 -29 10 -10 13 -23 9 -36 -6
-20 -5 -20 10 -8 14 12 19 12 26 2 5 -10 9 -10 13 -2 3 7 4 7 3 -1 -2 -7 -10
-12 -17 -11 -9 2 -15 -6 -16 -19 -1 -13 1 -18 5 -13 12 17 52 36 52 25 0 -5
-5 -10 -11 -10 -5 0 -8 -4 -5 -9 4 -5 17 -8 31 -6 31 3 31 -1 4 -16 -17 -9
-20 -8 -14 3 5 7 5 10 0 6 -4 -4 -14 -3 -22 4 -7 6 -16 8 -20 4 -3 -3 -1 -6 6
-6 7 0 9 -5 5 -12 -4 -6 -3 -8 3 -5 13 8 46 -27 36 -38 -5 -4 -2 -5 5 -1 10 6
11 11 0 24 -7 10 -8 14 -4 10 5 -4 16 -2 25 5 14 10 14 10 4 -4 -7 -9 -10 -19
-6 -22 3 -4 0 -14 -8 -24 -12 -14 -10 -14 14 2 22 14 25 20 15 27 -11 8 -11 9
0 6 8 -2 13 -7 12 -11 0 -4 5 -14 12 -22 32 -35 36 -44 34 -61 -5 -26 12 -44
32 -37 15 6 16 5 2 -12 -14 -17 -14 -17 7 -5 12 8 20 17 17 21 -2 4 6 5 18 1
21 -5 21 -5 1 -13 -12 -4 -24 -13 -29 -20 -5 -9 -2 -10 9 -6 10 4 24 10 32 13
9 4 15 3 14 -2 -4 -21 2 -34 15 -34 8 0 18 -9 21 -20 4 -11 10 -18 14 -16 4 3
13 1 21 -5 10 -5 11 -9 3 -9 -7 0 -18 -10 -24 -22 -6 -13 -8 -20 -4 -16 5 4
15 2 23 -4 17 -15 44 -20 36 -7 -3 5 -9 7 -13 5 -10 -6 -7 31 3 41 4 5 7 3 6
-2 -5 -22 1 -36 12 -29 6 4 8 3 5 -3 -4 -6 0 -16 8 -23 10 -9 15 -9 15 -1 0 6
4 11 8 11 5 0 9 -7 9 -15 0 -8 -3 -12 -7 -10 -4 2 -12 -7 -18 -20 -7 -15 -8
-25 -2 -25 6 0 10 6 10 13 0 8 7 14 15 14 10 0 12 -4 5 -12 -5 -7 -7 -15 -3
-18 3 -4 1 -7 -5 -7 -7 0 -12 -4 -12 -10 0 -5 5 -9 12 -7 7 1 12 -3 13 -10 0
-17 25 -41 25 -25 0 7 -5 12 -11 12 -5 0 -7 5 -4 10 4 6 18 2 36 -11 29 -21
31 -21 51 -3 l22 19 -20 -27 c-17 -24 -21 -25 -40 -13 -17 11 -21 11 -21 0 0
-8 3 -14 6 -13 26 2 34 -3 23 -14 -7 -7 -12 -16 -12 -22 0 -5 6 -2 13 8 12 16
14 16 31 -3 18 -20 11 -30 -10 -13 -5 4 -4 1 2 -7 18 -20 39 -4 22 17 -11 15
-11 15 3 4 14 -10 18 -10 23 4 5 13 1 15 -19 12 -15 -3 -22 -1 -18 5 4 6 1 7
-8 2 -12 -8 -12 -6 0 8 15 18 26 23 16 7 -3 -5 2 -10 13 -10 32 0 33 -11 6
-59 -14 -25 -18 -37 -10 -27 15 19 16 18 24 -4 l9 -24 5 22 c4 12 2 20 -2 17
-5 -3 -11 -1 -15 5 -9 15 17 12 38 -4 10 -8 14 -17 8 -20 -5 -3 -12 0 -14 6
-4 8 -6 9 -6 2 -1 -6 6 -17 14 -24 10 -9 15 -9 15 -1 0 6 5 11 12 11 6 0 8 -3
5 -7 -8 -7 34 -39 46 -35 4 1 7 -3 7 -8 0 -9 -14 -14 -32 -11 -14 2 -8 -17 6
-22 8 -3 20 1 26 9 7 8 18 14 24 14 6 0 3 -5 -6 -11 -22 -12 -23 -26 -3 -26 8
0 15 4 15 9 0 4 4 8 9 8 9 0 8 -60 -2 -77 -4 -7 4 -9 24 -7 18 2 28 0 24 -6
-4 -6 -3 -10 2 -9 18 3 34 -1 29 -9 -8 -13 32 -11 43 2 11 13 4 15 -41 17 -9
0 -22 7 -29 15 -9 11 -14 12 -19 3 -6 -8 -9 -8 -14 0 -4 6 -3 11 3 11 6 0 8 6
5 14 -3 8 -1 17 5 21 7 4 8 0 4 -11 -5 -13 -3 -15 7 -9 8 5 11 4 6 -3 -10 -17
28 -34 44 -19 10 9 11 9 6 0 -4 -7 -2 -13 3 -13 6 0 11 6 11 13 0 6 5 4 11 -5
5 -10 15 -18 20 -18 6 0 7 5 3 12 -4 7 -3 8 4 4 7 -4 12 -2 12 5 0 7 3 9 6 6
4 -4 2 -13 -4 -20 -16 -19 79 -17 103 3 11 8 16 10 12 4 -7 -13 44 -27 53 -16
3 4 12 8 20 10 8 2 16 7 18 12 2 5 10 6 18 3 7 -3 11 -10 7 -16 -4 -6 -1 -7 6
-2 16 9 2 24 -28 30 -14 2 -19 0 -15 -7 5 -7 2 -8 -6 -3 -8 5 -11 4 -7 -2 3
-5 0 -10 -8 -10 -8 0 -15 4 -15 9 0 4 5 8 11 8 5 0 8 4 4 9 -3 6 4 8 15 6 11
-2 20 1 20 7 0 7 6 6 15 -2 8 -7 15 -9 15 -4 0 5 4 2 10 -6 5 -8 12 -11 17 -7
4 5 3 11 -2 15 -6 4 -11 12 -12 17 -1 6 -5 19 -8 30 -5 15 -4 16 3 6 5 -7 12
-9 14 -5 3 5 3 4 2 -3 -2 -7 1 -15 5 -18 13 -8 20 32 8 44 -8 8 -8 11 1 11 11
0 16 -13 13 -33 0 -4 3 -7 9 -7 11 0 9 28 -4 49 -6 9 -5 12 2 7 6 -3 13 -2 17
4 4 7 12 7 25 0 20 -11 36 2 25 20 -9 14 18 13 33 -2 8 -8 10 -5 6 16 -3 16
-1 25 5 22 5 -4 12 -2 16 4 4 6 11 8 16 5 5 -4 9 -1 9 5 0 7 6 8 18 1 14 -7
19 -6 19 4 0 7 -6 11 -13 8 -7 -2 -11 2 -10 11 3 21 16 33 16 15 0 -12 2 -12
9 1 13 19 3 34 -13 21 -7 -6 -16 -8 -19 -5 -4 4 -5 -3 -2 -14 2 -13 -1 -20 -8
-18 -7 1 -8 1 -4 -2 4 -2 0 -10 -10 -17 -14 -11 -19 -10 -29 4 -17 22 2 44 30
35 12 -4 18 -3 14 1 -10 10 11 37 23 29 16 -10 9 9 -8 23 -16 13 -16 13 4 4
12 -6 24 -16 27 -23 3 -9 8 -8 16 5 10 15 14 16 28 5 10 -8 13 -9 9 -1 -4 7 0
16 10 22 17 9 16 11 -2 32 -11 12 -14 19 -7 15 7 -4 23 -9 36 -10 16 -2 22 2
21 18 0 12 -4 26 -8 33 -4 6 -2 15 4 19 8 5 9 3 4 -6 -5 -9 -2 -10 13 -6 11 4
23 2 27 -4 3 -5 11 -10 17 -10 6 0 -2 10 -18 23 -16 12 -33 20 -39 19 -5 -2
-6 0 -2 4 10 11 38 14 32 4 -3 -4 2 -11 11 -14 11 -4 15 -2 11 8 -3 8 1 17 9
20 10 4 13 1 9 -7 -4 -6 1 -3 10 8 9 11 21 19 26 17 6 -1 8 2 5 7 -3 5 1 12
10 15 13 5 15 2 11 -14 -3 -11 -1 -18 4 -14 14 8 11 30 -8 45 -14 12 -16 12
-8 0 5 -10 4 -12 -3 -7 -20 12 -13 24 13 24 13 0 22 -4 20 -8 -3 -4 2 -10 10
-14 8 -3 17 0 21 6 4 7 3 8 -4 4 -8 -5 -11 0 -9 16 2 14 18 31 40 44 21 11 34
24 30 29 -5 4 0 5 10 2 9 -4 17 -2 17 3 0 6 -4 10 -10 10 -5 0 -10 5 -10 11 0
5 4 8 9 5 5 -3 11 1 14 9 4 10 1 12 -11 9 -9 -2 -7 1 6 8 15 7 22 18 19 30 -3
10 -1 15 5 12 5 -3 8 -14 5 -23 -3 -11 2 -17 14 -17 16 0 16 2 2 31 l-16 30
28 -25 28 -25 -17 26 c-14 22 -14 28 -2 44 13 18 13 17 11 -8 -2 -19 3 -30 17
-38 11 -6 22 -8 25 -6 2 3 -5 8 -16 12 -12 3 -19 11 -15 16 3 5 10 6 16 3 7
-4 8 -2 4 5 -4 6 -13 8 -19 5 -7 -4 -2 3 11 15 12 12 20 26 18 30 -3 4 6 14
19 21 13 7 23 16 20 19 -3 6 17 10 60 11 15 1 16 3 6 9 -9 6 -10 11 -2 15 6 4
15 4 21 1 6 -3 7 1 4 10 -5 12 -10 13 -17 6 -14 -14 -27 -14 -27 0 0 5 4 8 9
4 5 -3 12 -1 16 5 9 15 35 12 35 -4 0 -8 4 -17 9 -20 5 -3 8 2 7 12 -1 20 -27
43 -40 35 -5 -4 -6 -1 -2 6 4 6 11 9 16 6 9 -6 23 12 26 33 3 18 14 29 14 14
0 -6 8 -9 18 -6 13 4 14 3 4 -4 -8 -5 -14 -13 -14 -18 0 -5 -4 -8 -10 -6 -5 1
-6 -3 -2 -9 4 -7 3 -9 -4 -5 -6 3 -13 2 -17 -3 -3 -6 4 -8 16 -6 12 2 22 6 23
7 20 37 52 75 59 71 5 -3 11 4 14 16 6 23 18 27 27 9 3 -9 5 -8 4 2 -1 8 2 25
6 38 6 18 11 21 21 12 9 -8 15 -8 20 0 4 6 1 9 -7 8 -8 -2 -12 4 -10 14 2 16
-7 22 -29 20 -5 -1 -4 35 1 48 1 3 2 8 1 13 0 4 4 7 10 7 5 0 7 5 4 10 -4 6
-12 7 -18 4 -7 -4 -8 -3 -4 1 18 20 35 13 31 -14 -4 -21 -2 -23 7 -11 9 13 10
13 6 0 -2 -8 -9 -15 -14 -15 -6 0 -15 -3 -19 -7 -4 -5 2 -8 13 -8 22 0 37 25
26 43 -4 7 0 8 13 4 18 -6 18 -6 -1 8 -11 8 -29 21 -40 30 l-20 15 20 -7 c11
-3 17 -2 12 2 -4 5 0 20 9 34 9 14 13 23 9 19 -4 -4 -13 -2 -21 5 -7 7 -21 18
-29 26 -9 7 -14 16 -10 19 3 4 10 0 15 -8 9 -14 14 -7 11 13 -1 5 3 6 9 2 8
-5 7 -11 -1 -21 -7 -8 -7 -14 -1 -14 14 0 22 24 13 39 -4 6 -15 9 -24 5 -13
-5 -16 -2 -11 10 3 9 10 14 14 11 5 -3 12 0 16 7 4 7 4 10 -1 6 -4 -4 -15 -2
-23 4 -8 7 -21 13 -30 15 -9 1 -18 6 -20 12 -2 5 -11 7 -20 4 -12 -3 -13 -2
-5 4 7 5 11 19 8 32 -5 26 -15 41 -15 22 0 -7 -5 -9 -12 -5 -7 4 -4 -2 6 -14
11 -12 14 -22 8 -22 -7 0 -12 5 -12 11 0 8 -6 7 -17 -2 -16 -13 -17 -12 -5 3
8 10 9 19 3 22 -5 3 -11 3 -14 -1 -2 -5 -3 -3 -1 3 4 18 -17 33 -35 27 -17 -7
-16 -5 13 17 16 12 18 12 11 1 -6 -10 -4 -12 5 -6 9 6 11 4 5 -5 -6 -9 -4 -11
5 -5 9 6 11 4 5 -5 -6 -9 -4 -11 5 -5 9 6 11 4 5 -5 -6 -9 -4 -11 4 -6 9 6 8
12 -4 26 -9 10 -15 23 -12 27 3 5 -6 9 -21 9 -20 -1 -26 3 -24 17 2 9 -2 17
-8 17 -6 0 -8 5 -5 10 3 5 2 10 -2 10 -14 0 -34 -40 -27 -53 5 -9 4 -9 -5 -1
-10 9 -9 20 3 49 20 47 20 58 0 25 -14 -24 -15 -24 -11 -2 3 13 1 20 -5 16 -5
-3 -7 -18 -4 -33 5 -17 4 -21 -2 -12 -8 11 -11 11 -16 0 -3 -8 -3 -3 0 10 5
18 3 22 -7 16 -8 -5 -5 2 6 15 l20 23 -21 -11 c-19 -10 -23 -8 -29 11 -4 12
-7 31 -6 42 l1 20 -9 -20 c-5 -13 -4 -25 3 -34 8 -11 8 -13 -1 -7 -7 4 -13 3
-13 -3 0 -5 5 -12 10 -14 6 -3 5 -4 -2 -3 -7 2 -13 16 -12 34 0 17 -3 29 -6
27 -8 -5 -41 33 -44 49 -4 28 -36 51 -36 25 0 -5 6 -7 13 -3 6 4 9 4 5 -1 -4
-4 -2 -15 5 -23 9 -13 9 -14 0 -8 -7 4 -13 3 -13 -3 0 -5 5 -12 10 -14 6 -3 5
-4 -2 -3 -7 2 -13 9 -13 17 -1 8 -6 24 -13 36 -14 26 -15 36 -3 29 5 -4 7 4 3
16 l-5 22 -8 -22 c-10 -26 -15 -27 -23 -6 -3 8 -2 13 2 10 5 -3 9 1 9 9 0 8
-4 12 -8 9 -4 -2 -16 7 -27 21 -22 28 -55 25 -45 -3 4 -13 3 -14 -5 -3 -12 17
-4 51 11 47 7 -2 9 -1 4 1 -4 3 -5 9 -2 13 3 5 -3 7 -13 5 -21 -4 -45 8 -42
21 1 5 -4 10 -12 12 -8 2 -9 0 -3 -5 13 -10 18 -36 6 -29 -5 4 -11 1 -13 -6
-3 -7 -7 -5 -11 6 -4 11 -3 15 4 10 7 -4 10 -1 7 7 -3 8 -11 13 -17 11 -7 -1
-10 2 -6 8 3 6 10 8 14 6 4 -3 13 -1 20 3 9 6 10 11 2 15 -6 4 -11 2 -11 -5 0
-7 -8 -5 -20 6 -13 12 -18 26 -15 39 3 12 2 15 -1 8 -4 -9 -9 -10 -19 -2 -10
8 -15 8 -21 -1 -5 -8 -3 -9 6 -4 9 6 11 4 5 -5 -6 -9 -4 -11 5 -5 8 5 11 4 6
-3 -3 -5 0 -13 6 -15 8 -4 7 -6 -4 -6 -9 -1 -19 -7 -22 -13 -3 -7 -3 -3 0 9 3
14 -1 25 -13 32 -10 6 -13 11 -7 11 6 0 12 12 12 26 0 17 -3 22 -9 13 -4 -7
-5 -17 -2 -23 4 -5 1 -6 -6 -2 -7 5 -10 15 -7 23 4 8 2 11 -5 7 -7 -4 -9 1 -5
17 3 13 3 18 0 11 -3 -6 -11 -9 -17 -5 -7 5 -23 8 -37 8 -15 0 -25 6 -25 15 0
9 -9 14 -20 13 -17 -1 -17 1 5 18 14 11 17 17 8 13 -11 -4 -21 2 -29 18 -16
31 -40 47 -58 40 -14 -5 -14 -4 -1 10 13 13 16 14 23 2 9 -16 27 -19 27 -3 0
5 -4 8 -9 5 -5 -4 -14 6 -19 21 -6 17 -11 21 -11 11 -1 -9 -6 -20 -13 -24 -8
-5 -9 -2 -4 11 6 16 4 16 -10 4 -16 -13 -16 -12 -6 8 7 12 12 28 11 35 0 7 -4
3 -9 -9 -5 -13 -17 -22 -27 -22 -17 1 -17 2 0 6 9 2 14 9 11 15 -4 6 1 17 11
25 11 7 14 13 8 13 -7 0 -15 -5 -18 -11 -5 -7 -14 -4 -26 7 -11 9 -22 14 -26
11 -3 -4 -1 -7 6 -7 7 0 9 -5 5 -11 -5 -8 -10 -6 -16 5 -5 9 -14 14 -19 11 -5
-4 -6 -12 -3 -18 4 -7 3 -8 -1 -4 -12 10 -15 38 -4 31 5 -3 9 0 9 5 0 6 5 11
11 11 5 0 8 -4 5 -9 -4 -5 4 -7 16 -3 16 4 18 7 8 10 -25 8 -50 34 -43 45 3 6
1 7 -5 3 -15 -9 -16 6 -1 21 8 8 8 13 0 18 -6 3 -10 3 -9 -2 1 -4 -4 -19 -11
-32 -7 -13 -8 -21 -2 -17 6 4 9 1 8 -6 -2 -7 -2 -10 0 -5 6 9 23 -1 23 -13 0
-15 -32 -4 -42 14 -8 14 -12 15 -26 4 -15 -12 -16 -11 -3 5 9 11 10 17 2 17
-6 0 -11 5 -11 12 0 6 10 3 22 -8 12 -10 18 -14 15 -7 -4 6 -3 14 3 18 5 3 10
12 10 18 0 7 -5 4 -11 -6 -10 -17 -29 -15 -29 4 0 6 4 7 10 4 6 -3 7 1 4 9 -7
18 -25 22 -21 5 1 -6 -4 -14 -11 -16 -8 -3 -10 1 -6 11 4 10 1 16 -10 16 -10
0 -13 -6 -9 -17 3 -10 3 -15 -1 -11 -4 3 -9 14 -11 25 -2 10 -4 19 -5 21 -2 1
-3 6 -4 11 0 5 -4 12 -8 16 -4 4 -4 13 -1 21 3 8 0 15 -6 15 -6 1 -17 2 -23 3
-7 0 -13 6 -13 13 0 6 -4 15 -9 20 -5 5 -6 3 -2 -5 5 -9 -1 -12 -22 -10 -16 1
-29 8 -29 15 0 9 4 10 12 3 9 -7 16 -6 24 4 8 10 9 16 1 21 -6 4 -9 3 -8 -2 2
-4 -2 -9 -7 -10 -6 -2 -10 2 -10 9 0 6 -7 13 -15 15 -13 4 -13 3 0 -6 13 -9
13 -11 -2 -11 -22 0 -28 22 -9 36 12 9 18 8 29 -5 11 -14 12 -13 2 7 -11 22
-30 30 -30 13 0 -6 -9 -9 -20 -8 -11 1 -20 5 -20 10 0 4 -6 5 -13 1 -8 -5 -7
-2 2 10 13 15 12 16 -17 11 -20 -3 -32 -1 -32 5 0 6 -6 8 -12 4 -7 -4 -3 4 10
18 28 31 29 45 0 18 -12 -11 -27 -20 -32 -19 -6 0 -5 3 2 6 6 2 10 9 7 13 -3
5 -12 7 -20 3 -18 -6 -20 13 -3 23 7 4 8 3 4 -4 -4 -7 1 -10 14 -7 14 3 18 0
14 -8 -4 -7 -3 -8 1 -4 17 15 13 37 -7 48 -11 6 -22 8 -25 6 -2 -3 5 -8 16
-12 12 -3 19 -11 15 -16 -3 -6 -11 -6 -17 -1 -18 13 -59 13 -51 0 4 -7 2 -8
-5 -4 -6 4 -9 12 -6 17 4 5 1 9 -6 9 -7 0 -10 3 -7 6 4 3 16 1 27 -6 12 -6 21
-7 21 -1 0 5 -7 12 -16 15 -16 6 -11 26 7 26 6 0 7 -6 3 -12 -6 -10 -5 -10 8
-1 8 7 18 11 21 8 4 -3 4 -2 1 3 -3 4 -16 7 -28 7 -28 1 -54 25 -49 45 3 9 1
11 -4 5 -7 -9 -19 -11 -38 -6 -3 0 4 10 15 21 11 11 20 26 19 33 0 6 -5 2 -11
-10 -6 -13 -15 -23 -20 -23 -5 0 -7 4 -3 9 3 5 2 12 -2 14 -5 3 -9 -8 -9 -24
-2 -26 6 -34 29 -30 5 1 5 -4 1 -10 -5 -8 -3 -9 6 -4 9 6 11 4 5 -5 -6 -9 -4
-11 5 -5 9 6 11 4 5 -5 -6 -9 -4 -11 5 -5 9 6 11 4 5 -5 -6 -9 -4 -11 6 -5 11
6 12 5 1 -6 -10 -11 -15 -9 -28 9 -8 12 -20 19 -26 16 -7 -5 -8 -2 -3 6 6 10
4 12 -7 7 -12 -4 -15 0 -13 19 1 15 -4 28 -12 31 -12 5 -12 7 -1 14 7 5 13 17
13 29 0 11 5 19 10 18 6 -2 9 -11 9 -20 -1 -10 3 -18 7 -18 14 0 11 44 -3 60
-7 7 2 3 20 -9 18 -12 30 -26 28 -30 -3 -4 1 -8 9 -8 11 0 12 4 4 13 -7 9 -6
13 5 16 11 2 9 6 -9 15 -19 8 -23 8 -18 0 4 -7 -1 -6 -10 2 -20 16 -22 22 -5
18 7 -1 12 4 13 12 0 21 21 25 29 6 3 -9 2 -13 -3 -10 -5 3 -12 1 -16 -5 -3
-5 3 -10 13 -10 11 0 23 7 26 16 3 8 11 12 17 8 7 -4 9 -3 6 3 -4 6 -1 13 6
16 14 5 16 45 3 65 -5 8 -2 11 6 10 7 -2 12 3 11 9 -2 7 3 12 10 10 6 -1 11 4
10 11 -2 6 2 12 7 12 13 0 13 -13 -1 -27 -7 -7 -6 -12 6 -17 10 -3 14 -2 10 5
-4 6 0 9 11 7 20 -3 26 31 11 67 -7 18 -7 19 6 3 21 -26 30 -9 11 21 l-15 26
20 -24 c12 -12 19 -27 16 -31 -3 -5 -1 -12 5 -15 6 -4 9 -1 8 7 -2 7 4 13 13
12 9 -1 15 7 15 20 -1 12 4 20 12 18 10 -2 10 2 2 18 -8 16 -8 20 2 18 7 -2
12 3 11 9 -2 7 0 12 5 12 19 -3 26 2 12 11 -12 7 -10 9 7 7 15 -1 19 -5 13
-13 -6 -6 -6 -15 -2 -19 4 -5 2 -5 -4 -2 -7 4 -17 0 -23 -7 -10 -12 -9 -14 6
-11 10 2 20 4 23 5 3 1 8 2 11 2 14 -2 1 52 -14 57 -13 5 -12 8 9 18 21 10 24
9 14 -1 -8 -10 -7 -15 5 -20 9 -3 13 -2 10 4 -11 18 14 10 25 -7 11 -17 11
-17 6 0 -3 11 0 17 9 17 18 0 20 16 3 26 -7 4 -8 3 -4 -4 4 -7 2 -12 -3 -12
-6 0 -11 6 -11 14 0 17 30 30 31 13 0 -7 5 -2 11 10 6 13 19 25 29 28 9 3 32
19 50 35 18 16 37 26 41 24 4 -3 8 0 8 6 0 7 -7 9 -15 6 -9 -3 -18 1 -21 9 -4
8 -11 12 -18 8 -7 -3 -6 -1 1 7 15 16 46 23 37 9 -3 -5 -11 -6 -17 -3 -7 4 -9
4 -5 -1 5 -5 23 -9 40 -11 18 -1 25 0 16 3 -10 2 -18 10 -18 18 0 16 28 28 42
18 6 -3 8 -1 5 4 -4 6 2 18 13 28 15 14 23 15 34 6 10 -8 16 -9 21 -1 4 6 3
10 -2 9 -22 -4 -24 3 -8 27 9 15 12 23 6 20 -6 -4 -11 -2 -11 4 0 6 -4 9 -8 6
-5 -3 -9 1 -9 8 0 7 6 13 13 13 7 0 11 -4 8 -9 -3 -4 2 -8 10 -8 13 0 14 5 6
28 -9 24 -8 25 4 10 21 -28 30 -21 11 10 l-18 27 26 -24 c14 -13 23 -29 20
-37 -3 -8 -1 -14 5 -14 5 0 9 8 9 18 0 36 3 43 16 36 8 -5 8 -2 -2 9 -15 19
-26 23 -15 5 4 -7 3 -8 -4 -4 -8 5 -10 1 -6 -11 5 -14 4 -15 -4 -4 -6 8 -8 21
-4 29 4 11 1 13 -8 7 -9 -5 -11 -4 -6 4 6 9 17 6 44 -9 29 -18 33 -18 21 -4
-12 16 -12 17 4 11 11 -4 16 -3 12 3 -3 6 -1 10 5 10 7 0 10 5 8 11 -2 6 -8 9
-13 7 -6 -2 -9 -6 -8 -10 1 -3 -4 -9 -13 -12 -12 -4 -12 -2 -4 14 6 11 8 20 4
20 -4 0 0 8 9 18 10 10 14 22 10 25 -3 4 -1 7 5 7 15 0 15 -13 1 -27 -7 -7 -6
-12 5 -16 8 -3 20 1 26 9 7 8 19 14 27 14 9 0 13 6 10 15 -4 8 -2 17 3 20 5 3
11 -3 13 -12 4 -17 5 -17 6 0 0 9 6 17 12 17 5 0 7 5 3 11 -4 8 -9 7 -15 -2
-7 -11 -9 -11 -9 1 0 13 -1 13 -10 0 -5 -8 -12 -11 -16 -7 -9 8 -1 18 18 21
29 4 40 17 27 32 -10 12 -9 13 6 8 10 -4 16 -3 13 2 -2 5 6 19 19 31 13 12 23
19 23 15 0 -4 11 -8 25 -8 14 -1 25 2 25 8 0 5 -3 7 -8 4 -4 -2 -18 2 -32 10
-14 7 -21 13 -17 14 5 0 17 -5 28 -10 11 -7 19 -7 19 -1 0 5 -6 12 -12 14 -10
4 -10 6 0 6 8 1 10 6 6 14 -6 9 -5 9 8 0 8 -7 18 -10 21 -6 4 3 7 1 7 -4 0 -6
-6 -13 -12 -16 -7 -2 -10 -8 -5 -12 4 -5 10 -5 14 -1 11 11 10 60 -2 69 -6 5
-4 7 5 4 8 -2 14 -9 13 -14 -1 -5 8 -8 20 -7 12 1 26 3 30 3 4 1 2 7 -5 15 -7
7 -19 11 -25 9 -7 -3 -13 0 -13 7 0 6 5 8 10 5 6 -3 10 -1 10 5 0 6 5 8 10 5
6 -3 10 -2 10 4 0 5 -5 12 -10 14 -6 3 -5 4 2 3 7 -2 12 -13 11 -25 -2 -13 1
-20 7 -16 14 9 13 38 -2 55 -7 8 -2 5 12 -6 14 -12 32 -24 40 -28 9 -4 8 -1
-3 7 -16 13 -16 15 -1 21 9 3 21 3 27 -1 7 -4 6 1 -2 10 -15 19 -2 24 16 6 7
-7 10 -5 10 8 0 35 3 44 13 38 5 -3 7 -12 3 -20 -3 -8 -1 -15 5 -15 11 0 11
18 -2 38 -11 19 3 30 15 12 9 -13 10 -13 6 0 -2 8 -11 14 -20 14 -10 -1 -13 4
-10 14 5 11 3 13 -7 7 -9 -5 -11 -4 -6 4 8 12 19 8 50 -18 11 -9 16 -11 13 -5
-8 15 18 38 33 29 6 -3 7 -11 4 -17 -5 -7 -2 -8 5 -3 9 5 10 10 2 18 -18 18
-13 31 7 16 14 -11 15 -11 5 1 -8 9 -9 19 -3 31 7 12 6 20 -2 25 -7 5 -8 3 -3
-6 5 -9 4 -11 -3 -6 -7 4 -12 11 -12 16 0 13 51 5 60 -10 5 -7 7 -2 8 15 0 19
-3 23 -9 14 -6 -10 -9 -10 -9 -2 0 6 5 15 12 19 8 5 6 10 -8 16 -18 8 -18 8 1
5 12 -2 25 5 31 17 11 19 12 19 18 -1 5 -15 15 -20 35 -19 16 0 27 4 24 9 -2
4 -8 5 -12 2 -5 -2 -16 4 -25 14 -17 18 -17 20 4 31 13 7 20 7 16 2 -3 -6 2
-9 11 -8 9 2 19 8 21 14 2 7 9 9 15 5 8 -4 7 -1 -1 9 -10 13 -10 17 2 21 8 3
17 2 20 -4 2 -5 3 -4 2 3 -2 7 -8 12 -14 11 -6 -2 -9 4 -6 12 4 8 12 15 19 15
21 0 27 17 9 24 -8 3 -12 2 -9 -4 3 -6 1 -10 -4 -10 -6 0 -11 5 -11 11 0 5 -4
7 -10 4 -6 -4 -7 1 -3 11 4 12 8 14 11 6 3 -10 7 -10 20 0 9 7 13 8 9 2 -3 -6
0 -11 8 -11 10 0 11 5 4 18 -5 11 -5 20 0 24 5 3 11 -3 13 -12 3 -15 5 -14 10
4 3 13 2 21 -4 20 -6 -1 -13 4 -15 11 -3 8 1 10 14 5 10 -3 15 -3 12 1 -10 11
-48 16 -54 6 -3 -4 2 -11 11 -14 9 -4 14 -9 11 -12 -6 -7 -47 18 -47 29 0 4 5
5 10 2 6 -3 13 1 16 9 3 9 10 16 16 16 5 0 7 -3 5 -7 -3 -5 7 -9 21 -10 l27
-1 -24 12 c-15 9 -20 16 -12 20 6 4 11 2 11 -3 0 -6 5 -11 10 -11 16 0 12 17
-6 24 -9 4 -24 1 -33 -6 -9 -7 -13 -9 -9 -4 4 5 -1 16 -10 25 -10 9 -13 13 -8
9 14 -11 28 -10 21 1 -3 5 -1 13 5 16 6 4 9 2 8 -3 -2 -6 0 -9 3 -9 3 1 13 -4
22 -12 22 -18 22 -7 0 14 -19 19 -27 65 -12 65 6 0 7 5 3 11 -4 6 -9 7 -13 2
-9 -14 -54 -10 -57 5 -1 7 0 8 3 2 2 -5 9 -10 14 -10 6 0 5 9 -2 21 -8 15 -8
19 0 15 6 -4 11 -2 11 3 0 12 -26 15 -33 4 -2 -5 -2 -1 0 7 8 29 8 33 -7 37
-12 4 -12 3 -1 -5 9 -7 5 -9 -15 -9 -16 0 -23 2 -17 4 10 3 10 10 2 24 -5 11
-7 24 -4 29 4 6 1 9 -7 8 -7 -2 -12 2 -11 7 1 6 -7 11 -17 11 -10 0 -18 -4
-17 -9 1 -5 -5 -12 -13 -14 -13 -4 -13 -3 0 6 13 10 8 15 -12 12 -5 0 -7 5 -5
12 1 7 -6 11 -18 9 -27 -5 -14 7 14 13 14 2 19 0 15 -7 -5 -7 -2 -8 6 -3 8 5
11 4 7 -3 -5 -6 1 -8 15 -4 21 5 21 5 -3 14 -13 5 -24 8 -25 6 0 -2 -8 3 -17
11 -9 7 -14 17 -11 22 8 13 -10 11 -24 -3 -8 -8 -12 -8 -12 -1 0 6 10 17 22
25 17 11 19 16 8 23 -9 5 -11 4 -6 -3 4 -7 2 -12 -3 -12 -6 0 -20 -9 -31 -20
-20 -20 -20 -20 -27 8 -4 15 -6 32 -5 39 1 6 -2 14 -8 18 -7 4 -7 13 1 26 10
19 9 19 -10 9 -12 -6 -21 -13 -21 -16 0 -3 6 -2 13 2 6 4 9 4 5 -1 -4 -4 -3
-14 3 -21 14 -17 -6 -28 -28 -14 -15 9 -14 10 7 4 22 -6 23 -5 11 9 -7 9 -18
14 -23 11 -6 -4 -5 2 1 14 17 32 12 39 -9 13 -21 -25 -26 -21 -11 8 7 13 3 25
-20 49 -17 18 -35 32 -42 32 -8 0 -8 3 2 9 8 5 9 11 3 15 -5 3 -13 -1 -16 -9
-3 -9 1 -18 9 -21 8 -4 12 -11 8 -17 -4 -6 -1 -7 7 -2 9 6 11 4 5 -5 -6 -9 -4
-11 5 -5 9 6 11 4 5 -5 -6 -9 -4 -11 5 -5 9 6 11 4 5 -5 -6 -9 -4 -11 5 -5 9
6 11 4 5 -5 -6 -9 -4 -11 6 -5 12 8 12 6 0 -8 -14 -18 -26 -23 -16 -8 3 5 -5
18 -17 28 -13 10 -31 32 -40 49 -16 28 -16 31 0 42 15 10 15 11 -3 6 -20 -6
-20 -5 -1 10 11 9 15 16 9 16 -7 0 -14 -4 -18 -10 -3 -5 -13 -7 -23 -4 -15 5
-15 4 -2 -6 13 -10 13 -11 -2 -7 -9 3 -19 1 -22 -6 -3 -9 -5 -8 -5 1 -1 7 -6
10 -13 6 -7 -4 -8 -3 -4 5 4 6 11 9 16 6 14 -9 21 26 7 38 -19 18 -37 19 -56
5 -15 -12 -15 -11 -1 6 14 18 13 19 -3 13 -10 -4 -16 -3 -12 2 3 5 -1 12 -7
15 -7 3 -3 3 9 1 12 -3 24 -1 28 4 4 7 -1 8 -12 4 -15 -6 -16 -4 -5 9 9 11 10
18 2 23 -6 4 -9 1 -8 -7 2 -9 -8 -13 -33 -13 -35 -1 -44 13 -26 42 9 14 -31
65 -44 57 -13 -7 -39 27 -32 40 4 5 0 6 -7 1 -9 -6 -12 -4 -8 7 4 8 1 15 -6
15 -6 0 -12 -8 -12 -18 0 -10 4 -15 8 -13 4 3 15 -7 24 -21 9 -14 24 -24 33
-23 10 2 15 -4 15 -14 -1 -10 2 -15 7 -12 5 3 6 -2 3 -9 -6 -16 -28 -17 -41
-2 -4 4 -3 5 3 2 7 -4 15 0 18 9 4 12 2 15 -9 10 -8 -3 -15 -1 -15 5 0 6 -6 7
-12 3 -7 -4 -10 -4 -6 1 9 10 -10 47 -21 41 -4 -3 -17 1 -27 9 -18 14 -18 15
0 9 16 -6 17 -5 6 15 -6 13 -18 20 -25 17 -7 -2 -16 3 -20 12 -6 15 -8 15 -16
-3 -7 -16 -8 -14 -4 8 4 21 2 27 -6 21 -8 -4 -9 -3 -5 5 4 6 2 19 -6 28 -11
15 -11 16 5 10 17 -6 17 -6 0 17 -16 21 -19 22 -30 7 -6 -9 -9 -18 -7 -21 3
-2 10 2 15 10 9 13 10 13 6 -1 -3 -9 0 -22 6 -28 6 -6 9 -11 7 -12 -3 0 -13
-2 -22 -4 -10 -2 -18 1 -18 7 0 6 8 7 18 4 15 -5 14 -4 -2 9 -10 8 -23 12 -29
8 -5 -3 -1 6 8 21 16 24 14 31 -8 27 -4 -1 -7 5 -5 12 5 22 -17 21 -28 -2
l-11 -22 -6 21 c-3 12 -10 19 -16 16 -15 -9 -25 14 -12 27 9 9 11 7 5 -8 -5
-16 -4 -18 6 -8 15 14 3 36 -17 29 -22 -9 -40 15 -38 52 1 29 0 31 -15 17 -24
-21 -32 -19 -25 8 6 17 5 20 -5 10 -10 -9 -16 -9 -26 2 -8 8 -24 12 -35 10
-15 -3 -18 -1 -11 8 13 17 22 47 14 46 -31 -5 -43 2 -38 24 3 12 3 16 0 10 -9
-19 -22 -16 -29 8 -4 11 -9 18 -13 15 -3 -4 4 -20 16 -36 24 -33 27 -40 12
-40 -5 0 -9 5 -7 11 1 6 -4 14 -12 17 -9 3 -11 0 -6 -8 6 -10 4 -11 -6 -4 -23
14 -40 13 -46 -2 -5 -13 -8 -12 -24 2 -15 13 -22 14 -33 4 -13 -10 -15 -8 -11
10 3 14 0 20 -8 17 -7 -2 -11 -11 -9 -20 3 -20 -14 -31 -24 -16 -4 8 -3 9 4 5
7 -4 12 -3 12 2 0 19 -13 20 -38 4 -24 -16 -25 -16 -13 5 7 14 18 20 31 18 11
-2 20 0 20 6 0 5 -12 7 -26 5 -21 -4 -25 -2 -20 12 5 14 3 13 -9 -2 -8 -10
-12 -23 -9 -27 3 -5 -2 -9 -10 -9 -9 0 -15 5 -13 11 1 6 -6 13 -17 14 -15 3
-14 -1 8 -24 18 -19 22 -28 12 -28 -8 0 -13 4 -10 9 3 4 -2 8 -10 8 -9 0 -16
5 -16 10 0 6 -5 10 -12 10 -9 0 -9 -3 -1 -11 12 -12 5 -52 -8 -44 -4 3 -6 12
-2 20 3 8 0 15 -7 15 -6 0 -9 -4 -6 -9 4 -5 0 -12 -6 -14 -10 -4 -10 -6 0 -6
6 -1 12 -8 12 -17 0 -9 5 -12 12 -8 7 5 8 3 3 -6 -6 -10 -11 -9 -21 5 -11 15
-16 16 -29 5 -10 -8 -15 -9 -15 -1 0 6 -4 11 -8 11 -5 0 -9 -6 -9 -14 0 -8 8
-13 19 -11 10 2 18 -1 18 -6 0 -6 5 -7 12 -3 6 4 8 3 5 -3 -3 -5 -21 -8 -38
-7 -32 2 -58 -17 -58 -41 0 -5 6 -2 13 7 7 10 17 14 21 10 5 -4 5 -2 2 5 -8
13 18 12 30 -2 4 -4 2 -5 -4 -1 -7 4 -13 2 -13 -3 0 -6 -7 -11 -16 -11 -8 0
-12 -5 -9 -10 4 -6 3 -10 -2 -9 -20 3 -27 -2 -13 -11 11 -7 11 -10 2 -10 -7 0
-10 -4 -7 -10 3 -6 -1 -7 -10 -3 -12 4 -13 8 -5 13 8 5 4 9 -9 13 -12 3 -24 0
-28 -5 -3 -7 -1 -8 5 -4 7 4 12 1 12 -8 0 -10 -6 -13 -17 -9 -15 5 -14 3 2
-10 23 -19 39 -22 29 -5 -4 7 -3 8 5 4 15 -10 3 -29 -14 -22 -15 5 -38 -17
-28 -27 3 -4 2 -7 -4 -7 -6 0 -14 7 -17 16 -4 10 -2 13 6 8 7 -5 8 -3 3 6 -5
9 -4 11 3 6 17 -10 15 -1 -4 14 -12 11 -15 11 -12 -1 2 -8 -3 -13 -9 -11 -7 1
-13 -2 -13 -8 0 -5 5 -10 11 -10 5 0 8 -4 4 -9 -3 -6 3 -15 12 -21 15 -10 16
-11 1 -6 -9 2 -22 -3 -30 -11 -11 -15 -11 -16 5 -10 11 4 16 3 12 -4 -4 -6
-13 -8 -21 -5 -8 3 -14 -1 -14 -10 0 -9 5 -12 12 -8 7 5 8 3 4 -5 -5 -7 -10
-10 -13 -7 -10 10 -44 -15 -37 -26 4 -7 2 -8 -5 -4 -9 6 -9 11 1 24 11 13 10
15 -4 9 -11 -4 -18 -2 -18 6 0 7 -5 4 -11 -6 -6 -9 -16 -14 -22 -11 -7 4 -9 4
-5 0 9 -11 -14 -36 -26 -28 -5 3 -6 -1 -1 -8 4 -7 2 -16 -6 -21 -7 -4 -10 -12
-5 -16 5 -4 11 -3 13 3 2 6 10 19 17 29 12 17 13 17 20 -1 4 -10 4 -16 1 -12
-9 8 -52 -35 -47 -46 3 -5 0 -6 -7 -2 -6 4 -9 11 -6 16 3 5 1 12 -5 15 -6 4
-9 1 -8 -6 2 -6 -3 -14 -11 -17 -10 -3 -11 0 -5 9 7 12 5 12 -9 0 -13 -10 -14
-17 -7 -26 8 -9 8 -15 0 -20 -5 -3 -10 -1 -10 4 0 6 -5 11 -11 11 -5 0 -7 -5
-4 -10 3 -6 -1 -13 -10 -16 -13 -5 -14 -9 -3 -15 8 -5 20 -1 33 11 15 14 24
16 35 9 12 -9 12 -10 -3 -5 -15 5 -17 2 -13 -17 3 -12 3 -16 0 -9 -3 6 -10 12
-15 12 -6 0 -8 -4 -5 -8 2 -4 -11 -8 -30 -9 -21 0 -31 3 -27 10 3 6 1 7 -5 3
-6 -4 -8 -14 -5 -23 4 -11 3 -14 -5 -9 -8 5 -10 1 -5 -10 5 -13 3 -15 -7 -9
-9 5 -11 4 -6 -3 4 -7 2 -13 -3 -13 -6 -1 -15 -2 -21 -3 -18 -2 -29 -21 -21
-35 6 -9 11 -10 15 -2 4 6 2 11 -4 11 -6 0 -8 5 -4 11 5 8 10 6 16 -5 6 -11 5
-21 -5 -30 -11 -12 -15 -11 -26 6 -10 16 -15 17 -27 7 -9 -7 -12 -20 -8 -32 5
-15 3 -17 -7 -11 -16 10 -62 14 -53 5 3 -3 11 -6 17 -6 7 0 13 -10 15 -23 2
-12 7 -20 11 -18 4 3 8 -1 8 -9 0 -8 -4 -12 -8 -10 -4 3 -9 -2 -13 -10 -3 -8
-11 -15 -18 -15 -10 0 -10 2 1 9 8 5 10 14 6 21 -6 9 -4 11 6 5 11 -7 11 -5
-1 11 -8 10 -16 21 -18 24 -2 2 -1 -8 2 -23 3 -19 1 -27 -7 -24 -22 8 -45 -12
-40 -33 4 -14 0 -20 -11 -20 -9 0 -16 5 -16 11 0 5 6 7 13 3 6 -4 8 -3 4 1
-13 15 -36 14 -30 -1 3 -9 -2 -12 -16 -9 -12 2 -19 0 -16 -6 4 -5 10 -7 15 -4
5 3 11 1 14 -4 3 -4 20 -7 38 -5 22 3 28 1 19 -5 -8 -5 -21 -7 -29 -3 -11 4
-13 1 -7 -7 6 -10 3 -11 -15 -1 -15 8 -20 8 -16 1 7 -11 -3 -14 -34 -12 -10 0
-11 -1 -2 -5 6 -3 9 -10 6 -15 -3 -6 -12 -5 -22 3 -14 10 -15 10 -5 -1 6 -7 9
-21 5 -30 -3 -9 6 -2 21 14 15 17 26 23 25 15 -2 -8 3 -14 10 -12 8 1 11 -2 7
-8 -5 -8 -11 -8 -19 -1 -13 11 -26 5 -26 -11 0 -5 4 -6 10 -3 6 4 7 -1 3 -11
-4 -10 -8 -13 -10 -7 -2 6 -15 9 -29 7 -13 -2 -24 0 -24 6 0 6 4 9 8 6 5 -3 9
2 9 10 0 13 -2 13 -15 0 -11 -10 -12 -19 -6 -28 15 -20 11 -61 -6 -65 -9 -3
-11 -1 -5 4 16 13 16 33 0 39 -8 3 -12 10 -9 15 3 5 -2 6 -12 2 -15 -5 -15 -7
0 -15 23 -13 21 -31 -3 -19 -16 9 -18 8 -14 -9 3 -11 9 -18 12 -15 4 2 8 -2 8
-9 0 -15 -14 -15 -35 -2 -12 7 -41 -17 -42 -36 0 -5 -6 -8 -14 -8 -8 0 -18 -4
-21 -10 -13 -21 17 -9 40 16 23 25 46 25 44 1 0 -9 -2 -9 -6 1 -2 6 -9 12 -15
12 -6 0 -7 -7 -4 -16 3 -8 2 -12 -4 -9 -6 3 -13 -1 -16 -9 -3 -9 -10 -13 -15
-10 -5 3 -9 0 -9 -7 0 -7 -16 -28 -36 -47 -27 -27 -33 -37 -22 -43 9 -7 7 -8
-9 -7 -12 2 -21 -1 -20 -7 1 -5 6 -8 12 -7 5 2 6 0 2 -4 -12 -13 -35 -13 -33
0 6 28 30 66 36 56 4 -6 7 3 7 20 0 16 -4 30 -9 30 -4 0 -7 -3 -6 -7 5 -15
-27 -73 -37 -69 -12 4 -12 -34 0 -54 6 -9 4 -11 -5 -5 -10 6 -12 3 -8 -13 4
-12 3 -20 -2 -17 -4 3 -10 14 -13 25 -3 11 -2 18 2 15 4 -2 7 5 6 17 -2 22
-30 34 -41 17 -3 -5 0 -8 7 -7 6 2 14 -3 17 -11 3 -9 0 -11 -7 -7 -7 4 -10 2
-9 -5 2 -6 -3 -14 -11 -17 -9 -3 -11 0 -6 8 5 9 4 11 -4 6 -7 -5 -9 -12 -3
-19 14 -18 11 -49 -8 -69 -15 -16 -16 -16 -16 2 0 10 5 16 10 13 5 -4 6 -1 1
7 -5 8 -4 11 3 6 12 -7 10 20 -3 31 -4 4 -5 3 -2 -3 8 -15 -18 -38 -33 -29 -6
4 -9 1 -8 -5 2 -7 -5 -14 -15 -15 -11 -2 -22 -6 -25 -9 -8 -9 30 -2 46 8 7 4
16 5 19 2 4 -3 1 -6 -5 -6 -7 0 -12 -9 -12 -19 0 -11 -5 -23 -10 -26 -6 -4 -7
-12 -3 -18 4 -7 -2 -5 -12 3 -17 14 -18 13 -12 -2 3 -10 2 -20 -4 -23 -5 -4
-7 -11 -3 -16 3 -5 0 -8 -8 -7 -7 2 -12 -3 -10 -11 2 -11 0 -12 -11 -3 -8 7
-17 9 -21 5 -4 -4 -4 0 0 10 3 10 1 17 -5 17 -6 0 -10 -5 -9 -12 2 -7 -2 -12
-9 -13 -7 0 -18 -6 -25 -14 -11 -11 -11 -13 0 -6 10 5 13 2 11 -11 -2 -11 0
-24 4 -31 4 -6 2 -15 -4 -19 -7 -4 -9 -3 -5 4 3 6 2 13 -3 16 -14 9 -21 -20
-8 -34 9 -10 9 -11 -1 -5 -8 4 -22 -1 -34 -12 -11 -10 -22 -17 -24 -15 -15 9
-14 -1 2 -13 18 -15 18 -15 0 -8 -12 4 -17 3 -13 -4 4 -6 -1 -10 -11 -9 -9 0
-16 -5 -14 -12 1 -8 -2 -11 -8 -7 -6 3 -8 11 -5 16 9 14 -29 11 -44 -3 -9 -9
-12 -9 -7 -1 3 6 -1 19 -10 28 -14 13 -19 14 -25 3 -5 -7 -9 -9 -9 -5 0 4 -9
3 -20 -3 -11 -6 -20 -8 -20 -6 0 12 58 35 77 30 11 -3 25 1 31 9 9 11 9 14 -3
14 -8 0 -12 -4 -9 -9 3 -4 -2 -8 -10 -8 -9 0 -16 4 -16 8 0 5 -7 9 -15 9 -8 0
-12 -4 -9 -9 3 -4 0 -8 -5 -8 -6 0 -11 5 -11 11 0 8 -11 9 -32 5 -21 -4 -28
-3 -19 3 11 7 11 9 0 14 -11 4 -11 6 -1 6 7 1 10 6 7 11 -4 6 -12 7 -18 3 -18
-11 -36 -12 -42 -3 -3 5 3 7 15 5 11 -2 22 0 25 6 6 9 -5 12 -40 10 l-20 -1
20 9 c14 6 28 4 45 -7 21 -13 23 -13 13 0 -7 8 -9 19 -5 23 4 5 1 5 -6 1 -19
-11 -43 13 -37 38 3 12 2 15 -1 8 -5 -10 -10 -10 -25 4 -10 9 -16 21 -12 27 3
5 1 7 -5 3 -6 -3 -13 -2 -16 3 -4 5 -1 11 6 14 7 2 6 3 -2 2 -8 -2 -22 -6 -31
-9 -19 -8 -34 20 -17 30 7 5 8 2 3 -6 -6 -9 -4 -11 5 -5 9 6 11 4 5 -6 -8 -12
-6 -12 8 0 18 15 23 26 7 16 -5 -3 -10 -1 -10 5 0 7 -7 10 -15 6 -16 -6 -65
12 -65 24 0 4 7 7 15 7 8 0 12 -4 10 -8 -3 -4 2 -9 10 -13 8 -3 17 0 21 6 5 7
2 8 -6 3 -9 -6 -10 -1 -5 16 3 13 3 20 -2 14 -12 -15 -34 -17 -31 -3 3 19 -21
60 -33 53 -12 -8 -40 20 -31 30 4 5 1 5 -6 1 -9 -6 -10 -11 -3 -20 6 -7 7 -17
3 -21 -4 -5 -1 -5 6 -1 6 4 12 2 12 -3 0 -6 3 -10 8 -10 19 3 29 -2 29 -16 0
-8 -4 -15 -9 -15 -4 0 -8 8 -8 18 0 14 -2 15 -10 2 -6 -10 -10 -11 -10 -2 0 6
-7 12 -16 12 -9 0 -14 6 -11 13 5 13 -16 49 -27 48 -20 -3 -26 0 -21 9 3 6 -4
10 -17 11 -22 0 -22 1 -3 8 14 6 23 4 30 -8 11 -18 35 -26 35 -11 0 5 -7 10
-16 10 -11 0 -14 6 -9 23 4 15 3 18 -3 8 -8 -11 -10 -11 -15 0 -4 11 -7 12
-18 2 -7 -7 -18 -13 -23 -13 -6 1 -1 9 11 19 19 16 20 20 7 25 -8 3 -13 2 -10
-3 3 -5 -2 -12 -11 -15 -10 -4 -14 -4 -10 0 3 4 -5 17 -20 30 -20 17 -29 20
-36 11 -5 -7 -6 -2 -2 13 6 20 5 23 -6 13 -21 -20 -31 -15 -11 5 9 11 21 17
26 14 5 -3 6 0 2 7 -6 9 -13 8 -27 -5 -11 -9 -22 -14 -26 -11 -3 4 -2 7 4 7 6
0 13 7 17 15 3 9 0 15 -10 15 -8 0 -12 -4 -9 -10 11 -18 -4 -10 -30 15 -14 14
-25 33 -25 42 0 9 3 13 8 9 4 -4 7 -11 7 -15 0 -4 8 -15 17 -24 16 -16 18 -16
28 2 9 18 7 19 -18 15 -26 -4 -27 -4 -7 12 15 13 16 15 3 11 -20 -7 -43 17
-33 34 6 8 2 8 -13 0 -14 -7 -23 -8 -27 -1 -3 5 0 10 7 11 7 0 3 5 -9 11 -28
14 -38 38 -15 39 11 0 12 2 4 6 -7 3 -20 -1 -29 -8 -14 -12 -15 -11 -9 9 7 21
-3 30 -17 16 -9 -10 12 -46 24 -39 5 4 9 1 9 -4 0 -6 -5 -11 -11 -11 -5 0 -8
-4 -4 -9 3 -5 1 -12 -4 -15 -4 -3 -8 4 -7 17 0 12 -4 21 -11 20 -8 -2 -10 4
-6 15 6 15 5 16 -11 2 -16 -12 -15 -9 3 20 11 19 21 40 21 45 -1 6 -7 -1 -14
-14 l-14 -24 -6 21 c-4 12 -12 22 -17 22 -6 0 -8 4 -5 9 3 5 -4 21 -16 36 -19
24 -23 26 -33 11 -14 -18 -26 -11 -18 10 3 8 0 14 -6 14 -6 0 -11 7 -11 15 0
9 -7 18 -15 21 -8 4 -13 10 -10 14 3 4 -2 11 -11 14 -8 3 -12 10 -9 16 4 6 11
7 17 4 6 -4 8 -3 5 3 -7 11 -36 11 -54 0 -6 -4 -14 -3 -18 3 -3 5 0 10 7 10 8
0 6 5 -4 11 -10 5 -18 17 -18 26 0 26 -8 10 -15 -27 -3 -22 -2 -30 4 -21 6 9
11 10 15 2 4 -6 2 -11 -4 -11 -6 0 -8 -5 -4 -12 5 -9 2 -8 -9 1 -10 7 -16 19
-15 25 1 6 -3 22 -10 36 -13 24 -13 24 4 5 13 -16 15 -17 11 -3 -3 10 -2 20 3
23 6 4 10 12 10 18 0 7 -5 4 -11 -6 -8 -14 -14 -15 -24 -7 -10 8 -15 8 -21 -1
-5 -8 -3 -9 6 -4 9 5 11 4 6 -3 -4 -6 -2 -20 3 -31 8 -15 8 -19 -4 -17 -8 1
-18 6 -22 11 -5 4 -2 5 6 0 11 -6 13 -4 8 9 -4 10 -7 20 -7 22 0 3 -6 2 -12
-2 -7 -4 -10 -4 -6 1 4 4 3 14 -3 22 -6 7 -8 13 -3 13 5 0 2 5 -6 11 -13 9
-13 10 2 6 9 -3 22 2 30 11 11 13 11 14 -2 7 -8 -5 -22 -10 -30 -10 -10 0 -14
-8 -12 -24 3 -28 0 -26 -18 8 -8 15 -8 21 -1 17 10 -6 15 6 12 27 0 4 7 7 16
8 15 0 15 2 -2 8 -11 5 -23 7 -27 4 -5 -2 -8 0 -8 6 0 5 6 12 13 14 9 4 9 6
-1 6 -22 2 -26 -29 -6 -45 16 -13 16 -15 2 -10 -9 3 -19 2 -21 -2 -2 -4 -3 -2
-1 5 3 11 -34 51 -42 46 -2 -2 -12 -3 -21 -2 -15 0 -15 2 2 9 11 5 16 9 11 9
-5 1 -4 7 2 14 5 7 6 21 1 32 -7 17 -8 18 -10 3 -1 -10 -2 -22 -3 -28 0 -5 -4
-10 -8 -10 -5 0 -10 0 -13 0 -2 0 -1 11 4 23 6 14 6 30 0 38 -6 9 -9 10 -9 2
0 -7 -7 -10 -17 -6 -15 5 -14 3 2 -10 11 -8 17 -19 12 -23 -4 -4 -7 -2 -7 5 0
7 -4 9 -10 6 -5 -3 -10 -1 -10 5 0 6 -5 8 -12 4 -7 -5 -8 -3 -2 7 4 8 10 22
11 32 2 14 -2 17 -16 12 -10 -3 -25 1 -33 8 -7 8 -20 16 -28 20 -12 4 -11 6 3
6 14 1 16 5 8 18 -7 13 -5 23 7 38 16 19 16 19 -3 4 -36 -28 -52 -35 -32 -12
21 25 23 40 1 19 -14 -15 -18 -14 -36 9 -11 14 -24 22 -29 19 -6 -3 -3 -11 7
-18 13 -10 14 -15 4 -21 -8 -5 -11 -4 -7 2 4 6 0 14 -9 17 -9 4 -14 9 -11 13
9 8 -12 45 -23 38 -5 -3 -11 -1 -15 5 -4 6 -11 7 -17 4 -7 -4 -8 -2 -4 5 4 6
12 8 18 5 6 -4 8 -2 4 4 -3 6 -2 13 4 17 16 10 11 28 -6 21 -22 -8 -44 11 -37
32 4 14 3 14 -5 3 -9 -12 -13 -13 -26 -1 -9 7 -19 10 -23 6 -3 -3 0 -6 8 -6
12 0 11 -2 -1 -11 -13 -9 -12 -10 2 -5 9 3 27 -4 40 -14 13 -11 18 -19 11 -20
-6 0 -14 6 -17 13 -5 9 -7 9 -12 0 -7 -15 -44 15 -44 37 0 8 -8 0 -16 -17 -9
-18 -21 -30 -26 -26 -6 3 -4 9 6 15 19 11 18 56 -2 54 -7 -2 -18 -9 -23 -17
-5 -8 -9 -9 -9 -4 0 6 -7 -1 -15 -15 -8 -14 -14 -19 -15 -12 0 7 -4 10 -10 7
-5 -3 -10 -1 -10 5 0 7 7 10 15 6 8 -3 15 -2 15 3 0 13 -37 20 -37 7 0 -6 -4
-20 -9 -30 -5 -15 -4 -17 6 -11 9 5 11 4 6 -4 -12 -19 -26 -1 -21 27 5 26 5
26 -6 5 -6 -12 -18 -24 -26 -27 -8 -3 -11 -1 -8 4 3 6 1 10 -4 10 -10 0 -15
-14 -12 -32 0 -4 -6 -5 -14 -2 -8 4 -15 10 -15 16 0 5 5 6 12 2 7 -4 8 -3 4 4
-7 11 -2 14 33 16 8 1 16 7 19 14 2 8 -5 11 -20 10 -14 -2 -22 2 -20 10 2 13
-1 15 -11 5z m175 -35 c-7 -7 -12 -8 -12 -2 0 5 -4 2 -10 -6 -5 -8 -12 -12
-15 -8 -10 10 29 46 40 37 5 -6 4 -14 -3 -21z m-207 -28 c-3 -5 3 -13 12 -19
17 -10 17 -10 1 -11 -10 0 -18 5 -18 11 0 5 -6 7 -12 3 -10 -6 -10 -5 -1 8 7
8 9 19 5 23 -4 5 -1 5 6 1 7 -4 10 -11 7 -16z m341 -15 c-11 -8 -25 -15 -30
-15 -6 1 0 7 14 15 32 19 40 18 16 0z m3044 -9 c0 -3 -4 -8 -10 -11 -5 -3 -10
-1 -10 4 0 6 5 11 10 11 6 0 10 -2 10 -4z m341 -59 c-10 -9 -11 -8 -5 6 3 10
9 15 12 12 3 -3 0 -11 -7 -18z m-3355 1 c3 -4 -1 -5 -10 -4 -8 1 -18 5 -22 8
-3 4 1 5 10 4 8 -1 18 -5 22 -8z m3421 -40 c-3 -8 -6 -5 -6 6 -1 11 2 17 5 13
3 -3 4 -12 1 -19z m-3352 -18 c3 -5 1 -10 -4 -10 -6 0 -11 5 -11 10 0 6 2 10
4 10 3 0 8 -4 11 -10z m-614 -63 c-10 -9 -11 -8 -5 6 3 10 9 15 12 12 3 -3 0
-11 -7 -18z m-29 -11 c7 4 8 2 4 -5 -4 -6 -11 -9 -16 -6 -5 3 -13 -2 -18 -11
-8 -15 -10 -15 -15 0 -4 10 -3 15 2 12 5 -3 12 2 16 12 5 11 9 13 12 4 3 -6
10 -9 15 -6z m4148 -1 c0 0 -9 -8 -19 -17 -18 -16 -20 -15 -18 2 1 11 8 18 19
17 10 -1 18 -2 18 -2z m-3430 -9 c0 -2 -7 -7 -16 -10 -8 -3 -12 -2 -9 4 6 10
25 14 25 6z m34 -9 c-3 -8 -12 -14 -21 -14 -13 0 -13 2 3 14 10 7 19 13 21 13
1 0 0 -6 -3 -13z m-799 -47 c-3 -5 -12 -10 -18 -10 -7 0 -6 4 3 10 19 12 23
12 15 0z m830 -20 c3 -5 1 -10 -4 -10 -6 0 -11 5 -11 10 0 6 2 10 4 10 3 0 8
-4 11 -10z m2460 -31 c-5 -14 -3 -19 3 -15 6 3 13 2 16 -3 7 -11 -13 -9 -32 3
-10 6 -10 11 -1 22 16 20 21 17 14 -7z m-2380 -39 c3 -6 -1 -7 -9 -4 -18 7
-21 14 -7 14 6 0 13 -4 16 -10z m-991 -12 c-3 -4 -11 -5 -19 -1 -21 7 -19 12
4 10 11 0 18 -5 15 -9z m3294 -49 c10 -16 9 -16 -19 -2 -34 17 -35 19 -10 19
10 0 24 -8 29 -17z m67 11 c3 -6 -1 -7 -9 -4 -18 7 -21 14 -7 14 6 0 13 -4 16
-10z m-3475 -54 c0 -2 -7 -9 -15 -16 -13 -11 -14 -10 -9 4 5 14 24 23 24 12z
m3326 -42 c2 -12 0 -13 -13 -3 -12 11 -14 10 -11 -6 1 -11 -3 -20 -10 -20 -7
0 -17 -7 -22 -15 -5 -8 -11 -12 -15 -9 -3 3 9 22 27 42 33 37 40 38 44 11z
m-1954 -64 c5 0 8 -6 5 -12 -2 -7 3 -18 12 -25 14 -11 14 -12 -1 -13 -10 0
-18 5 -18 11 0 5 -6 7 -12 3 -10 -6 -10 -4 0 8 9 11 10 18 2 23 -5 3 -10 0
-10 -7 0 -9 -3 -9 -10 2 -5 8 -17 15 -27 15 -12 0 -18 8 -19 22 -1 12 2 20 7
18 4 -3 11 0 15 6 4 7 14 0 26 -20 11 -17 24 -31 30 -31z m3379 -8 c-7 -2 -17
2 -22 9 -7 12 -9 12 -9 0 0 -8 -3 -12 -6 -8 -15 14 8 27 29 15 15 -8 18 -13 8
-16z m-1464 -1 c0 -11 -5 -18 -9 -15 -4 3 -5 11 -1 19 7 21 12 19 10 -4z m-77
-15 c0 -8 -7 -19 -15 -26 -16 -14 -10 -34 7 -24 7 4 8 2 4 -4 -8 -14 -42 4
-51 27 -4 11 -3 11 9 2 16 -13 32 1 21 19 -8 13 4 32 16 25 5 -4 9 -12 9 -19z
m-3350 4 c-8 -5 -19 -10 -25 -10 -5 0 -3 5 5 10 8 5 20 10 25 10 6 0 3 -5 -5
-10z m4935 -30 c-3 -5 -12 -10 -18 -10 -7 0 -6 4 3 10 19 12 23 12 15 0z
m-3341 -31 c-3 -5 0 -9 7 -9 7 0 9 -3 6 -6 -3 -4 2 -18 13 -32 20 -25 19 -42
-3 -42 -9 0 -8 3 1 8 9 6 6 12 -13 22 -13 7 -27 21 -31 32 -3 10 -11 18 -19
18 -7 0 -16 7 -19 16 -5 14 -4 15 9 4 12 -10 16 -9 21 4 5 13 9 14 20 5 8 -6
11 -15 8 -20z m-70 -5 c3 -8 2 -12 -4 -9 -6 3 -10 10 -10 16 0 14 7 11 14 -7z
m3408 9 c-6 -2 -9 -10 -6 -15 4 -7 2 -8 -5 -4 -13 9 -5 26 12 25 9 0 8 -2 -1
-6z m-3367 -51 c-3 -3 -11 0 -18 7 -9 10 -8 11 6 5 10 -3 15 -9 12 -12z m1682
-2 c1 -11 -3 -23 -9 -26 -6 -4 -8 -2 -4 4 3 6 1 14 -5 18 -9 5 -2 16 16 24 1
0 1 -9 2 -20z m-3399 -12 c-2 -26 -16 -48 -31 -48 -6 0 -3 6 8 13 10 8 15 19
11 25 -4 7 -4 17 -1 22 10 16 14 12 13 -12z m1872 -88 c-11 -7 9 -21 33 -24 4
-1 7 -4 7 -8 0 -32 0 -33 -9 -19 -5 7 -11 9 -13 5 -3 -5 -4 -4 -2 3 4 17 -8
24 -22 12 -8 -7 -14 -6 -20 2 -4 8 -3 9 5 5 8 -5 10 0 7 18 -3 19 -1 23 11 19
10 -4 11 -8 3 -13z m1481 -3 c-10 -9 -11 -8 -5 6 3 10 9 15 12 12 3 -3 0 -11
-7 -18z m1984 -67 c3 -5 1 -10 -4 -10 -6 0 -11 5 -11 10 0 6 2 10 4 10 3 0 8
-4 11 -10z m-5475 -20 c0 -5 -5 -10 -11 -10 -5 0 -7 5 -4 10 3 6 8 10 11 10 2
0 4 -4 4 -10z m5560 -61 c11 -19 10 -20 -10 -9 -11 6 -18 15 -15 21 9 13 13
11 25 -12z m-5650 -34 c0 -2 -6 -8 -13 -14 -10 -8 -14 -7 -14 2 0 8 6 14 14
14 7 0 13 -1 13 -2z m3361 -18 c-10 -9 -11 -8 -5 6 3 10 9 15 12 12 3 -3 0
-11 -7 -18z m-1084 7 c-3 -3 -12 -4 -19 -1 -8 3 -5 6 6 6 11 1 17 -2 13 -5z
m3410 -36 c-3 -8 -6 -5 -6 6 -1 11 2 17 5 13 3 -3 4 -12 1 -19z m68 -58 c-3
-5 -1 -10 4 -10 6 0 11 -5 11 -11 0 -5 -4 -7 -10 -4 -5 3 -10 1 -10 -4 0 -6
-5 -11 -11 -11 -8 0 -8 5 1 15 10 12 10 15 -1 15 -11 0 -11 2 1 10 19 12 23
12 15 0z m-3371 -40 c-6 -6 -10 -3 -10 10 0 13 4 16 10 10 7 -7 7 -13 0 -20z
m-2504 -10 c-6 -11 -13 -20 -16 -20 -2 0 0 9 6 20 6 11 13 20 16 20 2 0 0 -9
-6 -20z m3295 -10 c-1 -11 -4 -22 -7 -25 -4 -5 -4 34 1 43 4 8 7 -1 6 -18z
m-3292 -33 c3 -8 -1 -14 -8 -14 -7 0 -11 6 -8 14 3 7 6 13 8 13 2 0 5 -6 8
-13z m5851 -5 c3 -5 -1 -9 -9 -9 -8 0 -12 4 -9 9 3 4 7 8 9 8 2 0 6 -4 9 -8z
m-5824 -36 c0 -3 -4 -8 -10 -11 -5 -3 -10 -1 -10 4 0 6 5 11 10 11 6 0 10 -2
10 -4z m5798 -51 c-3 -3 -9 2 -12 12 -6 14 -5 15 5 6 7 -7 10 -15 7 -18z
m-5814 3 c-3 -4 -9 -8 -15 -8 -5 0 -9 4 -9 8 0 5 7 9 15 9 8 0 12 -4 9 -9z
m2721 -46 c-3 -3 3 -11 13 -19 16 -12 16 -13 -2 -7 -11 4 -21 1 -27 -7 -6 -10
-8 -8 -6 9 0 12 5 22 10 22 4 0 5 5 2 10 -5 8 -12 7 -23 -2 -10 -7 -14 -9 -10
-4 4 5 0 15 -8 23 -28 28 -2 35 27 7 16 -15 27 -30 24 -32z m505 52 c0 -8 -19
-13 -24 -6 -3 5 1 9 9 9 8 0 15 -2 15 -3z m2625 -4 c3 -5 1 -10 -4 -10 -6 0
-11 5 -11 10 0 6 2 10 4 10 3 0 8 -4 11 -10z m-2737 -75 c3 -3 2 -8 -3 -12 -4
-5 -10 -2 -12 5 -3 6 -9 10 -13 7 -5 -3 -11 -1 -15 4 -6 10 33 6 43 -4z m2706
0 c-4 -8 -11 -12 -16 -9 -6 4 -5 10 3 15 19 12 19 11 13 -6z m-2729 -25 c3 -5
1 -10 -4 -10 -6 0 -11 5 -11 10 0 6 2 10 4 10 3 0 8 -4 11 -10z m2720 -18 c-2
-9 -4 -21 -4 -27 -1 -5 -5 -4 -10 4 -5 8 -7 21 -3 29 4 11 1 13 -8 7 -8 -5
-11 -4 -6 3 10 16 35 3 31 -16z m-55 -7 c0 -8 -3 -16 -7 -18 -5 -3 -8 5 -8 18
0 13 3 21 8 18 4 -2 7 -10 7 -18z m-45 -44 c3 -5 2 -12 -3 -15 -5 -3 -9 1 -9
9 0 17 3 19 12 6z m-2671 -9 c3 -5 -1 -9 -9 -9 -8 0 -12 4 -9 9 3 4 7 8 9 8 2
0 6 -4 9 -8z m-164 -32 c0 -5 -5 -10 -11 -10 -5 0 -7 5 -4 10 3 6 8 10 11 10
2 0 4 -4 4 -10z m-2700 -4 c0 -3 -4 -8 -10 -11 -5 -3 -10 -1 -10 4 0 6 5 11
10 11 6 0 10 -2 10 -4z m5497 -21 c0 -8 -4 -12 -9 -9 -5 3 -6 10 -3 15 9 13
12 11 12 -6z m-2741 -7 c4 -7 4 -10 -1 -6 -4 4 -14 3 -22 -4 -11 -8 -12 -7 -7
6 7 19 20 21 30 4z m45 -1 c-6 -8 -7 -18 -3 -22 4 -5 1 -5 -6 -1 -10 6 -10 11
-1 22 6 8 14 14 16 14 3 0 0 -6 -6 -13z m-2781 -43 c0 -8 -4 -12 -10 -9 -5 3
-10 10 -10 16 0 5 5 9 10 9 6 0 10 -7 10 -16z m50 10 c0 -8 -19 -13 -24 -6 -3
5 1 9 9 9 8 0 15 -2 15 -3z m5373 -46 c-19 -20 -29 -25 -35 -16 -12 20 -10 24
18 36 16 8 22 17 18 25 -5 8 -2 7 9 -2 17 -13 16 -16 -10 -43z m-103 -43 c0
-8 -2 -15 -4 -15 -2 0 -6 7 -10 15 -3 8 -1 15 4 15 6 0 10 -7 10 -15z m-5220
-39 c0 -6 7 -1 15 10 14 18 14 18 9 -2 -4 -15 -13 -21 -30 -20 -13 0 -24 7
-24 14 0 6 -5 12 -11 12 -5 0 -7 4 -4 10 7 11 45 -9 45 -24z m5241 5 c-6 -10
-7 -22 -3 -26 4 -5 1 -5 -5 -1 -23 13 -15 37 15 45 1 1 -2 -7 -7 -18z m-36
-13 c-4 -35 -4 -35 -19 -41 -17 -7 -30 20 -14 29 7 4 8 3 4 -4 -4 -7 -3 -12 3
-12 16 0 26 23 12 28 -11 4 -11 6 0 13 8 5 15 9 15 9 1 0 0 -10 -1 -22z
m-5150 -19 c-5 -16 -4 -19 5 -14 9 6 11 4 5 -4 -10 -18 -27 2 -19 22 9 25 17
21 9 -4z m60 -40 c4 -6 14 -8 24 -4 12 5 13 3 4 -6 -9 -9 -17 -8 -34 5 -13 9
-18 16 -12 16 7 0 15 -5 18 -11z m43 -51 c-2 -8 7 -12 22 -11 14 1 19 -1 13
-3 -15 -7 -18 -54 -3 -54 5 0 7 6 4 14 -7 18 12 30 22 15 5 -8 3 -9 -6 -4 -9
6 -12 4 -8 -7 8 -19 -4 -39 -18 -30 -5 4 -20 21 -32 38 -16 23 -18 34 -10 42
15 15 19 15 16 0z m4813 -91 c-10 -9 -11 -8 -5 6 3 10 9 15 12 12 3 -3 0 -11
-7 -18z m-4614 -82 c0 -8 -4 -12 -9 -9 -5 3 -6 10 -3 15 9 13 12 11 12 -6z
m4547 -32 c3 -8 -1 -10 -11 -6 -10 4 -14 2 -10 -4 4 -6 -1 -17 -10 -24 -15
-12 -16 -12 -8 1 13 20 13 34 0 42 -5 4 0 6 12 5 13 0 25 -7 27 -14z m-4371
-158 c-3 -9 -8 -14 -10 -11 -3 3 -2 9 2 15 9 16 15 13 8 -4z m4179 -52 c-6 -2
-9 -10 -5 -16 3 -7 3 -9 -2 -5 -4 4 -17 -4 -28 -18 -13 -17 -23 -22 -30 -15
-6 6 -5 15 6 25 12 12 17 13 20 3 3 -7 6 -6 6 5 1 16 15 26 36 26 6 0 4 -2 -3
-5z m-4130 -38 c-3 -16 -1 -17 11 -6 15 12 16 11 8 -28 -1 -2 -8 2 -16 9 -8 7
-15 9 -15 4 0 -5 -4 -3 -9 5 -5 8 -7 20 -4 28 8 20 29 9 25 -12z m4043 15 c-3
-5 -12 -10 -18 -10 -7 0 -6 4 3 10 19 12 23 12 15 0z m10 -40 c3 -5 1 -10 -4
-10 -6 0 -11 5 -11 10 0 6 2 10 4 10 3 0 8 -4 11 -10z m-75 -80 c0 -5 -5 -10
-12 -10 -6 0 -8 -3 -4 -7 4 -5 14 0 21 10 8 11 16 14 19 8 4 -5 -3 -15 -16
-22 -23 -12 -38 -23 -69 -51 -10 -10 -19 -13 -19 -7 0 8 -6 7 -17 -2 -16 -11
-16 -11 -5 1 7 8 18 15 24 15 6 0 13 6 16 14 3 9 0 11 -8 6 -9 -5 -11 -4 -6 4
6 9 11 9 21 1 9 -7 16 -6 26 7 12 15 12 16 -6 9 -20 -7 -20 -7 0 13 22 22 35
26 35 11z m-123 -89 c-2 -10 0 -27 6 -37 9 -17 8 -17 -10 1 -11 11 -16 22 -12
23 5 2 9 10 9 18 0 8 3 14 6 14 4 0 4 -8 1 -19z m-42 -11 c3 -5 1 -10 -4 -10
-6 0 -11 5 -11 10 0 6 2 10 4 10 3 0 8 -4 11 -10z m-3612 -14 c4 -10 1 -13 -8
-9 -8 3 -12 9 -9 14 7 12 11 11 17 -5z m110 -83 c-4 -10 -2 -14 4 -10 6 4 18
-4 27 -18 20 -31 14 -32 -19 -3 -25 22 -33 48 -15 48 5 0 6 -7 3 -17z m67 -19
c0 -8 -19 -13 -24 -6 -3 5 1 9 9 9 8 0 15 -2 15 -3z m3360 -3 c0 -6 -5 -13
-10 -16 -6 -4 -8 -10 -5 -15 3 -5 1 -11 -4 -14 -8 -5 -8 15 -1 34 1 3 2 8 1
13 0 4 4 7 9 7 6 0 10 -4 10 -9z m-3340 -21 c0 -5 -5 -10 -11 -10 -5 0 -7 5
-4 10 3 6 8 10 11 10 2 0 4 -4 4 -10z m3260 -60 c0 -5 -2 -10 -4 -10 -3 0 -8
5 -11 10 -3 6 -1 10 4 10 6 0 11 -4 11 -10z m-3160 -70 c-8 -16 -8 -22 4 -26
8 -3 12 -12 9 -20 -4 -10 0 -12 11 -8 9 3 16 2 16 -3 0 -12 -40 -14 -41 -2 -1
5 -2 13 -3 18 0 5 -4 13 -8 16 -7 7 8 45 18 45 2 0 0 -9 -6 -20z m3080 -10 c0
-5 -2 -10 -4 -10 -3 0 -8 5 -11 10 -3 6 -1 10 4 10 6 0 11 -4 11 -10z m-7 -22
c14 -12 14 -15 -9 -31 -13 -10 -24 -14 -24 -9 0 6 8 13 18 17 16 6 16 7 -2 21
-11 8 -15 14 -10 14 6 0 18 -6 27 -12z m-2900 -151 c3 -8 -1 -14 -8 -14 -7 0
-11 6 -8 14 3 7 6 13 8 13 2 0 5 -6 8 -13z m2752 -27 c-3 -5 -12 -10 -18 -10
-7 0 -6 4 3 10 19 12 23 12 15 0z m-2814 -14 c5 3 9 0 9 -6 0 -7 -7 -9 -16 -6
-9 3 -18 6 -20 6 -3 0 -2 5 2 12 6 9 9 9 12 0 2 -7 8 -10 13 -6z m44 -34 c-3
-3 -11 0 -18 7 -9 10 -8 11 6 5 10 -3 15 -9 12 -12z m-165 -87 c0 -8 -2 -15
-4 -15 -2 0 -6 7 -10 15 -3 8 -1 15 4 15 6 0 10 -7 10 -15z m3203 -110 c-3 -9
-8 -14 -10 -11 -3 3 -2 9 2 15 9 16 15 13 8 -4z m-3353 -45 c0 -5 -5 -10 -11
-10 -5 0 -7 5 -4 10 3 6 8 10 11 10 2 0 4 -4 4 -10z m3373 -5 c-3 -9 -8 -14
-10 -11 -3 3 -2 9 2 15 9 16 15 13 8 -4z m102 -40 c6 0 10 -4 10 -10 0 -5 4
-15 8 -22 12 -19 -11 -25 -35 -9 -12 9 -19 16 -14 16 5 0 3 6 -3 13 -13 16 -3
30 13 19 6 -4 16 -7 21 -7z m-3535 -50 c0 -1 -12 -2 -26 -2 -17 0 -22 2 -13 7
10 7 39 3 39 -5z m-171 -155 c-7 -5 -17 -6 -21 -4 -4 3 -8 1 -8 -5 0 -5 6 -12
13 -15 6 -3 2 -3 -10 0 -19 4 -22 2 -17 -13 5 -14 4 -15 -4 -4 -7 10 -9 45 -3
46 30 4 61 1 50 -5z m3931 -38 c0 -5 -7 -9 -15 -9 -8 0 -12 4 -9 9 3 4 9 8 15
8 5 0 9 -4 9 -8z m-4063 -71 c1 -14 -3 -18 -13 -14 -11 4 -12 9 -3 19 15 18
14 18 16 -5z m14 -44 c-10 -9 -11 -8 -5 6 3 10 9 15 12 12 3 -3 0 -11 -7 -18z
m4116 17 c-3 -3 -12 -4 -19 -1 -8 3 -5 6 6 6 11 1 17 -2 13 -5z m31 -30 c8
-16 8 -21 -3 -21 -7 0 -11 7 -7 15 3 10 1 13 -6 8 -8 -5 -10 -2 -6 9 7 18 7
18 22 -11z m-4164 -10 c3 -8 2 -12 -4 -9 -6 3 -10 10 -10 16 0 14 7 11 14 -7z
m-89 -34 c-3 -5 0 -10 7 -10 7 -1 2 -7 -11 -14 -17 -10 -20 -15 -10 -19 8 -3
3 -4 -9 -4 l-24 1 22 18 c12 10 19 18 16 18 -4 0 -4 5 -1 10 3 6 8 10 11 10 3
0 2 -4 -1 -10z m4373 -68 c8 -24 7 -28 -9 -28 -12 0 -15 4 -9 10 13 13 13 29
0 21 -6 -4 -7 1 -3 11 5 13 3 15 -7 9 -9 -5 -11 -4 -6 4 10 16 22 6 34 -27z
m-4458 -40 c-5 -2 -8 -9 -6 -15 1 -7 1 -9 -1 -4 -3 4 -10 4 -15 1 -7 -4 -8 -2
-4 4 4 7 2 12 -4 12 -7 0 -6 5 2 13 9 10 16 11 24 3 7 -6 8 -12 4 -14z m-25
-42 c3 -5 1 -10 -4 -10 -6 0 -11 5 -11 10 0 6 2 10 4 10 3 0 8 -4 11 -10z
m4574 -11 c-22 -13 -31 -11 -17 5 7 8 17 12 22 9 4 -3 2 -9 -5 -14z m-4602 -5
c-3 -3 -12 -4 -19 -1 -8 3 -5 6 6 6 11 1 17 -2 13 -5z m4597 -22 c3 -5 -1 -9
-9 -9 -8 0 -12 4 -9 9 3 4 7 8 9 8 2 0 6 -4 9 -8z m-4674 -27 c0 -8 -4 -15
-10 -15 -5 0 -7 7 -4 15 4 8 8 15 10 15 2 0 4 -7 4 -15z m4762 -14 c-4 -10 -7
-11 -10 -3 -2 7 -9 9 -14 6 -6 -4 -8 -3 -5 3 10 16 36 11 29 -6z m73 -87 c0
-12 -3 -20 -8 -17 -5 3 -6 14 -4 25 4 14 2 18 -9 14 -9 -3 -12 -1 -9 4 3 6 1
10 -4 10 -6 0 -11 8 -11 17 0 26 43 -25 45 -53z m-4851 28 c2 -4 -4 -8 -14 -8
-10 0 -16 4 -14 8 3 4 9 8 14 8 5 0 11 -4 14 -8z m4887 -74 c11 -21 11 -22 -4
-9 -10 7 -17 17 -17 22 0 15 9 10 21 -13z m-5006 -27 c3 -6 -5 -15 -17 -21
-21 -10 -21 -10 -6 3 10 8 15 17 11 20 -3 4 -4 7 0 7 3 0 8 -4 12 -9z m5088
-55 c4 -10 1 -13 -8 -9 -8 3 -12 9 -9 14 7 12 11 11 17 -5z m145 -109 c-7 -9
25 -36 36 -30 6 3 5 0 -3 -8 -10 -11 -15 -11 -18 -1 -3 6 -8 10 -12 8 -4 -3
-8 7 -9 21 -1 15 1 24 4 21 3 -4 4 -8 2 -11z m-2707 -34 c13 -16 12 -17 -3 -4
-17 13 -22 21 -14 21 2 0 10 -8 17 -17z m-2750 -36 c-10 -9 -11 -8 -5 6 3 10
9 15 12 12 3 -3 0 -11 -7 -18z m2702 0 c3 -8 -1 -14 -8 -14 -7 0 -11 6 -8 14
3 7 6 13 8 13 2 0 5 -6 8 -13z m-35 -28 c-1 -17 -4 -25 -8 -18 -7 10 -2 49 5
49 2 0 3 -14 3 -31z m-2698 7 c0 -3 -4 -8 -10 -11 -5 -3 -10 -1 -10 4 0 6 5
11 10 11 6 0 10 -2 10 -4z m2727 -21 c0 -8 -4 -15 -9 -15 -4 0 -8 7 -8 15 0 8
4 15 8 15 5 0 9 -7 9 -15z m-52 -5 c3 -5 1 -10 -4 -10 -6 0 -11 5 -11 10 0 6
2 10 4 10 3 0 8 -4 11 -10z m-35 -16 c0 -8 -19 -13 -24 -6 -3 5 1 9 9 9 8 0
15 -2 15 -3z m257 -10 c-3 -3 -12 -4 -19 -1 -8 3 -5 6 6 6 11 1 17 -2 13 -5z
m50 -39 c4 -4 3 -5 -4 -2 -6 4 -13 2 -15 -5 -3 -8 -6 -6 -10 4 -7 17 15 19 29
3z m2714 -8 c-13 -13 -26 -3 -16 12 3 6 11 8 17 5 6 -4 6 -10 -1 -17z m-5794
-29 c4 -24 -13 -39 -34 -31 -11 4 -10 10 7 28 11 12 18 25 15 28 -3 4 -2 5 2
2 4 -3 8 -15 10 -27z m3093 18 c0 -2 -7 -7 -16 -10 -8 -3 -12 -2 -9 4 6 10 25
14 25 6z m-420 -57 c0 -5 -4 -9 -8 -9 -5 0 -9 7 -9 15 0 8 4 12 9 9 4 -3 8 -9
8 -15z m474 -5 c3 -8 2 -12 -4 -9 -6 3 -10 10 -10 16 0 14 7 11 14 -7z m-18
-19 c4 -8 10 -12 15 -9 5 3 9 0 9 -5 0 -14 -3 -14 -34 0 -14 7 -23 16 -20 20
8 14 24 10 30 -6z m2704 -10 c0 -2 -5 -7 -12 -11 -6 -4 -8 -3 -5 3 10 16 -18
23 -34 10 -11 -10 -11 -9 0 5 10 14 18 15 32 7 10 -5 19 -12 19 -14z m-2603
-60 c0 -8 -4 -12 -9 -9 -5 3 -6 10 -3 15 9 13 12 11 12 -6z m-654 -24 c-12
-10 -20 -21 -17 -23 2 -3 -2 -11 -10 -17 -8 -7 -12 -20 -9 -28 4 -11 2 -14 -5
-9 -6 4 -21 2 -33 -4 -15 -9 -24 -9 -30 -1 -5 6 -6 9 -3 6 7 -5 64 22 64 31 0
3 -4 3 -8 0 -4 -2 -14 0 -22 6 -12 8 -12 9 3 4 11 -4 17 0 18 12 0 14 2 14 9
-3 8 -19 11 -18 14 6 0 6 10 17 20 25 28 20 35 17 9 -5z m-2567 -3 c4 -7 4
-10 -1 -6 -4 4 -14 3 -22 -3 -8 -8 -13 -8 -13 -1 0 6 6 13 13 15 6 3 13 6 14
6 1 1 5 -5 9 -11z m3298 -44 c3 -8 2 -12 -4 -9 -6 3 -10 10 -10 16 0 14 7 11
14 -7z m0 -39 c-10 -8 -23 -14 -29 -14 -5 0 -1 6 9 14 11 8 24 15 30 15 5 0 1
-7 -10 -15z m2480 -27 c-4 -14 -2 -18 5 -14 7 4 9 1 5 -8 -7 -19 -24 -25 -48
-16 -17 6 -18 7 -3 13 9 3 17 2 17 -4 0 -6 4 -8 8 -5 5 3 8 19 7 35 -1 17 2
28 7 25 5 -3 6 -15 2 -26z m-5777 0 c-3 -8 -6 -5 -6 6 -1 11 2 17 5 13 3 -3 4
-12 1 -19z m5813 18 c0 -3 -4 -8 -10 -11 -5 -3 -10 -1 -10 4 0 6 5 11 10 11 6
0 10 -2 10 -4z m-2430 -20 c0 -3 -4 -8 -10 -11 -5 -3 -10 -1 -10 4 0 6 5 11
10 11 6 0 10 -2 10 -4z m11 -39 c-10 -9 -11 -8 -5 6 3 10 9 15 12 12 3 -3 0
-11 -7 -18z m-983 -3 c-4 -11 -28 -14 -28 -4 0 8 22 20 28 14 2 -1 2 -6 0 -10z
m-2323 -24 c3 -6 -1 -7 -9 -4 -18 7 -21 14 -7 14 6 0 13 -4 16 -10z m5665 -1
c0 -6 -4 -8 -9 -4 -6 3 -15 -3 -21 -14 -10 -20 -40 -19 -40 1 0 5 5 6 10 3 6
-3 12 0 15 7 6 16 45 22 45 7z m-3445 -39 c-3 -5 -12 -10 -18 -10 -7 0 -6 4 3
10 19 12 23 12 15 0z m3335 -20 c0 -5 -5 -10 -11 -10 -5 0 -7 5 -4 10 3 6 8
10 11 10 2 0 4 -4 4 -10z m-2129 -53 c-10 -9 -11 -8 -5 6 3 10 9 15 12 12 3
-3 0 -11 -7 -18z m2069 -41 c0 -2 -7 -7 -16 -10 -8 -3 -12 -2 -9 4 6 10 25 14
25 6z m-5306 -25 c-3 -4 -11 -6 -16 -6 -6 0 -13 -6 -16 -14 -3 -9 2 -11 19 -7
19 6 21 5 7 -4 -22 -13 -47 -3 -43 18 4 20 0 18 30 18 13 0 22 -2 19 -5z
m5235 -4 c-2 -1 -13 -9 -24 -17 -19 -14 -19 -14 -6 3 7 9 18 17 24 17 6 0 8
-1 6 -3z m-3414 -57 c-3 -5 -2 -10 3 -10 6 0 13 -8 16 -17 6 -15 5 -15 -13 1
-18 16 -20 36 -5 36 3 0 2 -4 -1 -10z m-1757 -34 c-2 -1 -11 -7 -20 -14 -14
-11 -16 -10 -13 5 2 10 4 19 4 20 1 1 8 0 16 -4 9 -3 15 -6 13 -7z m5035 -41
c-3 -9 -8 -14 -10 -11 -3 3 -2 9 2 15 9 16 15 13 8 -4z m-1599 -11 c3 -8 2
-12 -4 -9 -6 3 -10 10 -10 16 0 14 7 11 14 -7z m1572 -46 c-3 -13 -5 -26 -5
-29 -2 -16 -27 -15 -27 1 0 11 6 16 14 13 7 -3 12 -2 11 3 -2 15 1 34 6 34 3
0 3 -10 1 -22z m-1536 -13 c-7 -9 -10 -19 -6 -22 4 -4 11 -1 15 6 5 8 11 9 14
4 7 -11 -37 -35 -46 -26 -8 7 14 53 26 53 5 0 4 -7 -3 -15z m1487 -10 c0 -8
-4 -12 -9 -9 -5 3 -6 10 -3 15 9 13 12 11 12 -6z m-23 -27 c-5 -8 -2 -9 11 -4
18 6 18 6 2 -12 -9 -10 -14 -23 -10 -27 5 -5 1 -4 -8 3 -9 6 -18 10 -21 7 -2
-3 -5 2 -5 10 0 12 3 12 16 2 12 -10 14 -9 9 5 -4 9 -4 19 -1 22 10 10 15 7 7
-6z m-3364 -39 c0 -5 5 -7 10 -4 16 10 11 -1 -7 -16 -10 -8 -14 -9 -10 -2 4 7
0 16 -10 22 -17 10 -17 10 0 11 9 0 17 -5 17 -11z m-1358 -26 c-13 -5 36 -50
49 -46 4 1 4 -8 1 -20 -5 -20 -4 -21 11 -8 15 12 17 12 11 -3 -9 -23 -21 -20
-38 12 -8 15 -18 26 -23 26 -4 -1 -7 2 -5 7 1 5 -2 9 -6 9 -5 0 -16 6 -25 13
-15 11 -14 12 10 13 16 1 22 -1 15 -3z m3398 -9 c0 -8 -19 -13 -24 -6 -3 5 1
9 9 9 8 0 15 -2 15 -3z m1270 -9 c0 -1 -6 -7 -13 -13 -10 -8 -13 -6 -13 7 0
11 6 17 13 14 7 -3 13 -6 13 -8z m-43 -17 c-3 -8 -6 -5 -6 6 -1 11 2 17 5 13
3 -3 4 -12 1 -19z m-3367 -37 c0 -12 -20 -25 -27 -18 -7 7 6 27 18 27 5 0 9
-4 9 -9z m30 -12 c0 -6 -4 -7 -10 -4 -5 3 -10 11 -10 16 0 6 5 7 10 4 6 -3 10
-11 10 -16z m2114 5 c3 -8 2 -12 -4 -9 -6 3 -10 10 -10 16 0 14 7 11 14 -7z
m-3294 -29 c0 -5 -5 -3 -10 5 -5 8 -10 20 -10 25 0 6 5 3 10 -5 5 -8 10 -19
10 -25z m17 -17 c-3 -8 -6 -5 -6 6 -1 11 2 17 5 13 3 -3 4 -12 1 -19z m4422
-25 c-7 -7 -15 -10 -18 -6 -3 4 -10 11 -16 16 -5 5 1 5 15 1 23 -6 24 -6 10
12 -14 18 -14 18 3 5 13 -11 15 -17 6 -28z m-1025 1 c3 -8 2 -12 -4 -9 -6 3
-10 10 -10 16 0 14 7 11 14 -7z m-3374 2 c0 -3 -4 -8 -10 -11 -5 -3 -10 -1
-10 4 0 6 5 11 10 11 6 0 10 -2 10 -4z m4358 -53 c-5 -7 -14 -11 -18 -8 -5 3
-11 1 -15 -5 -4 -6 -11 -8 -16 -4 -5 3 -7 10 -3 15 3 5 10 6 16 3 7 -5 9 -2 5
8 -8 22 2 29 24 15 13 -8 15 -15 7 -24z m-963 8 c-2 -9 -4 -18 -4 -20 -1 -2
-8 2 -16 9 -8 7 -15 9 -15 6 0 -4 -5 -4 -12 0 -8 5 -6 10 7 14 30 11 43 8 40
-9z m-3355 -10 c0 -5 -7 -12 -16 -15 -14 -5 -15 -4 -4 9 14 17 20 19 20 6z
m3384 -22 c-3 -5 -10 -7 -15 -3 -5 3 -7 10 -3 15 3 5 10 7 15 3 5 -3 7 -10 3
-15z m-3309 -9 c3 -5 1 -10 -4 -10 -6 0 -11 5 -11 10 0 6 2 10 4 10 3 0 8 -4
11 -10z m785 -14 c0 -3 -4 -8 -10 -11 -5 -3 -10 -1 -10 4 0 6 5 11 10 11 6 0
10 -2 10 -4z m34 -31 c-3 -7 -13 -12 -22 -10 -9 2 -21 4 -26 4 -6 1 -1 7 9 15
22 16 46 11 39 -9z m-756 -20 c-3 -3 -9 2 -12 12 -6 14 -5 15 5 6 7 -7 10 -15
7 -18z m675 -20 c4 -8 1 -17 -5 -21 -7 -4 -8 -3 -4 4 4 7 2 12 -4 12 -6 0 -8
5 -5 10 8 14 12 13 18 -5z m2677 5 c8 -5 11 -10 5 -10 -5 0 -17 5 -25 10 -8 5
-10 10 -5 10 6 0 17 -5 25 -10z m670 0 c0 -5 -5 -10 -11 -10 -5 0 -7 5 -4 10
3 6 8 10 11 10 2 0 4 -4 4 -10z m-3375 -28 c-3 -3 -11 0 -18 7 -9 10 -8 11 6
5 10 -3 15 -9 12 -12z m3330 -22 c10 -11 16 -20 13 -20 -3 0 -13 9 -23 20 -10
11 -16 20 -13 20 3 0 13 -9 23 -20z m-560 -10 c3 -5 1 -10 -4 -10 -6 0 -11 5
-11 10 0 6 2 10 4 10 3 0 8 -4 11 -10z m-2860 -59 c-3 -6 -11 -11 -16 -11 -5
0 -4 6 3 14 14 16 24 13 13 -3z m-425 -21 c-12 -8 -12 -10 -1 -10 8 0 12 -3 8
-6 -9 -9 -28 6 -22 17 4 5 12 9 18 9 7 0 6 -4 -3 -10z m3737 -22 c-3 -8 -6 -5
-6 6 -1 11 2 17 5 13 3 -3 4 -12 1 -19z m-3676 -11 c-10 -9 -11 -8 -5 6 3 10
9 15 12 12 3 -3 0 -11 -7 -18z m337 14 c11 -6 10 -10 -4 -15 -9 -3 -19 -4 -22
-1 -3 3 1 5 9 5 11 0 11 2 -1 10 -8 5 -10 10 -5 10 6 0 16 -4 23 -9z m-168
-15 c0 -3 -4 -8 -10 -11 -5 -3 -10 -1 -10 4 0 6 5 11 10 11 6 0 10 -2 10 -4z
m100 0 c0 -3 -4 -8 -10 -11 -5 -3 -10 -1 -10 4 0 6 5 11 10 11 6 0 10 -2 10
-4z m-233 -12 c-3 -3 -12 -4 -19 -1 -8 3 -5 6 6 6 11 1 17 -2 13 -5z m3493
-18 c-7 -7 -13 -7 -20 0 -6 6 -3 10 10 10 13 0 16 -4 10 -10z m63 0 c4 -10 1
-13 -9 -9 -15 6 -19 23 -5 23 5 0 11 -7 14 -14z m-208 -34 c-3 -3 -11 0 -18 7
-9 10 -8 11 6 5 10 -3 15 -9 12 -12z"/>
<path d="M2207 5533 c-12 -12 -7 -25 7 -20 7 3 20 0 27 -6 7 -7 5 -2 -5 11
-22 25 -20 24 -29 15z"/>
<path d="M2330 5421 c0 -6 12 -23 26 -38 l26 -28 -21 29 c-11 15 -18 32 -15
37 3 5 0 9 -5 9 -6 0 -11 -4 -11 -9z"/>
<path d="M2940 4796 c0 -2 8 -10 18 -17 15 -13 16 -12 3 4 -13 16 -21 21 -21
13z"/>
<path d="M5880 4490 c-14 -11 -20 -20 -14 -20 6 0 19 9 29 20 23 25 17 25 -15
0z"/>
<path d="M721 4253 c7 -12 15 -20 18 -17 3 2 -3 12 -13 22 -17 16 -18 16 -5
-5z"/>
<path d="M4944 2788 c10 -16 23 -28 28 -28 7 0 6 5 -1 13 -6 8 -7 18 -3 23 4
5 3 6 -2 2 -5 -4 -16 -2 -24 5 -11 9 -11 4 2 -15z"/>
<path d="M277 1613 c-4 -3 -7 -11 -7 -17 0 -6 5 -5 12 2 6 6 9 14 7 17 -3 3
-9 2 -12 -2z"/>
<path d="M5346 607 c3 -10 9 -15 12 -12 3 3 0 11 -7 18 -10 9 -11 8 -5 -6z"/>
<path d="M4850 6142 c0 -7 5 -12 11 -12 6 0 8 -7 5 -16 -3 -9 -2 -12 5 -9 5 4
16 1 24 -5 10 -9 19 -9 28 -3 6 6 20 9 30 8 9 -2 17 1 17 6 0 5 -4 9 -10 9
-21 0 -25 2 -42 17 -16 14 -18 14 -24 -1 -6 -16 -8 -16 -25 0 -11 10 -19 12
-19 6z m68 -33 c-17 -10 -28 -2 -21 17 4 11 8 12 20 3 11 -10 11 -14 1 -20z"/>
<path d="M1673 6115 c0 -8 4 -15 9 -15 4 0 8 4 8 9 0 6 -4 12 -8 15 -5 3 -9
-1 -9 -9z"/>
<path d="M4666 6118 c3 -5 10 -6 15 -3 13 9 11 12 -6 12 -8 0 -12 -4 -9 -9z"/>
<path d="M5038 6103 c7 -3 16 -2 19 1 4 3 -2 6 -13 5 -11 0 -14 -3 -6 -6z"/>
<path d="M5070 6082 c0 -10 -5 -23 -10 -28 -7 -7 -7 -11 2 -11 7 0 19 -2 27
-4 16 -5 23 23 10 42 -8 11 -9 10 -7 -5 2 -10 -2 -21 -8 -23 -7 -2 -10 5 -7
22 3 14 3 25 -1 25 -3 0 -6 -8 -6 -18z"/>
<path d="M1259 6056 c13 -15 13 -19 0 -27 -9 -5 -10 -9 -2 -9 6 0 15 5 18 10
4 6 10 8 14 6 4 -3 13 0 21 6 13 8 12 9 -1 5 -9 -3 -27 2 -40 11 -23 15 -23
15 -10 -2z"/>
<path d="M1716 6054 c-17 -17 -20 -25 -8 -22 16 3 41 -15 35 -26 -3 -6 -3 -8
2 -4 4 4 14 3 22 -4 8 -6 17 -7 21 -2 4 5 6 8 3 7 -2 -1 -12 2 -23 8 -15 8
-17 14 -8 24 8 9 8 15 0 20 -6 4 -9 1 -8 -6 2 -6 -2 -13 -9 -16 -8 -3 -11 3
-8 16 5 25 1 26 -19 5z"/>
<path d="M4525 6040 c-3 -6 1 -7 9 -4 18 7 21 14 7 14 -6 0 -13 -4 -16 -10z"/>
<path d="M5131 6034 c0 -11 3 -14 6 -6 3 7 2 16 -1 19 -3 4 -6 -2 -5 -13z"/>
<path d="M5160 6040 c-9 -6 -10 -10 -3 -10 6 0 15 5 18 10 8 12 4 12 -15 0z"/>
<path d="M1215 6010 c7 -23 7 -24 -11 -10 -19 14 -19 14 0 -7 23 -27 40 -20
25 10 -17 32 -22 35 -14 7z"/>
<path d="M1240 6001 c0 -6 5 -13 10 -16 6 -3 10 1 10 9 0 9 -4 16 -10 16 -5 0
-10 -4 -10 -9z"/>
<path d="M5190 6006 c0 -2 7 -7 16 -10 8 -3 12 -2 9 4 -6 10 -25 14 -25 6z"/>
<path d="M1795 5980 c-3 -5 -1 -10 4 -10 6 0 11 5 11 10 0 6 -2 10 -4 10 -3 0
-8 -4 -11 -10z"/>
<path d="M5166 5981 c-3 -4 1 -17 9 -27 13 -17 14 -18 15 -1 0 9 -5 17 -11 17
-5 0 -7 5 -4 10 3 6 4 10 1 10 -3 0 -7 -4 -10 -9z"/>
<path d="M4550 5960 c0 -5 5 -10 11 -10 5 0 7 5 4 10 -3 6 -8 10 -11 10 -2 0
-4 -4 -4 -10z"/>
<path d="M1133 5945 c0 -8 4 -12 9 -9 5 3 6 10 3 15 -9 13 -12 11 -12 -6z"/>
<path d="M5200 5956 c0 -2 7 -7 16 -10 8 -3 12 -2 9 4 -6 10 -25 14 -25 6z"/>
<path d="M1864 5942 c-14 -9 -12 -48 4 -64 7 -7 12 -10 13 -7 0 2 2 12 4 22 2
9 0 15 -5 12 -13 -8 -19 22 -7 34 12 12 8 14 -9 3z"/>
<path d="M4496 5933 c-6 -14 -5 -15 5 -6 7 7 10 15 7 18 -3 3 -9 -2 -12 -12z"/>
<path d="M5230 5921 c-7 -14 -7 -22 2 -27 7 -4 8 -3 4 4 -4 7 -3 12 2 12 5 0
9 7 9 15 0 20 -4 19 -17 -4z"/>
<path d="M1920 5855 c-7 -9 -8 -15 -2 -15 5 0 12 7 16 15 3 8 4 15 2 15 -2 0
-9 -7 -16 -15z"/>
<path d="M1956 5862 c-2 -4 -1 -14 4 -22 7 -11 9 -9 7 8 -1 24 -3 26 -11 14z"/>
<path d="M4435 5840 c-18 -20 -18 -20 -1 -14 16 6 17 5 5 -13 -9 -16 -15 -18
-25 -9 -6 6 -10 14 -8 17 2 3 -4 6 -12 6 -11 0 -9 -6 8 -24 24 -26 38 -29 38
-10 0 8 9 22 20 32 11 10 17 22 14 26 -8 14 -19 11 -39 -11z m35 6 c0 -3 -4
-8 -10 -11 -5 -3 -10 -1 -10 4 0 6 5 11 10 11 6 0 10 -2 10 -4z"/>
<path d="M5350 5799 c0 -6 5 -7 12 -3 7 5 9 2 5 -8 -7 -21 3 -31 18 -18 9 8
14 6 19 -5 6 -17 26 -21 26 -4 0 5 -5 7 -12 3 -7 -5 -9 -2 -5 9 4 12 1 15 -14
12 -14 -3 -19 0 -16 8 3 7 -3 14 -14 14 -10 1 -19 -3 -19 -8z"/>
<path d="M1986 5753 c-4 -10 -4 -14 0 -10 4 4 13 2 19 -3 9 -8 15 -6 19 6 4 9
4 19 1 22 -3 3 -5 0 -5 -6 0 -7 -5 -12 -11 -12 -5 0 -7 5 -4 10 3 6 2 10 -3
10 -6 0 -13 -8 -16 -17z"/>
<path d="M4290 5719 c0 -5 5 -7 10 -4 6 3 10 8 10 11 0 2 -4 4 -10 4 -5 0 -10
-5 -10 -11z"/>
<path d="M5474 5713 c2 -9 8 -18 15 -19 6 -1 7 0 1 3 -5 2 -8 9 -5 13 3 5 1
11 -4 14 -5 4 -8 -2 -7 -11z"/>
<path d="M2112 5656 c-12 -7 -20 -15 -16 -19 3 -3 13 1 22 9 12 13 16 13 23 2
6 -9 9 -9 9 -1 0 19 -13 22 -38 9z"/>
<path d="M4198 5633 c7 -3 16 -2 19 1 4 3 -2 6 -13 5 -11 0 -14 -3 -6 -6z"/>
<path d="M5572 5624 c3 -5 0 -15 -8 -22 -8 -7 -14 -8 -14 -2 0 5 -5 10 -11 10
-8 0 -8 -5 1 -15 16 -20 23 -19 37 5 9 14 10 21 1 26 -6 4 -9 3 -6 -2z"/>
<path d="M5620 5620 c-9 -6 -10 -10 -3 -10 6 0 15 5 18 10 8 12 4 12 -15 0z"/>
<path d="M777 5604 c-7 -7 13 -54 24 -54 4 0 11 5 14 10 3 6 -1 10 -9 10 -14
0 -20 12 -17 33 1 9 -4 9 -12 1z"/>
<path d="M4146 5585 c-11 -8 -15 -15 -9 -15 6 0 16 7 23 15 16 19 11 19 -14 0z"/>
<path d="M5630 5550 c-9 -6 -10 -10 -3 -10 6 0 15 5 18 10 8 12 4 12 -15 0z"/>
<path d="M2296 5522 c-3 -5 1 -9 9 -9 8 0 12 4 9 9 -3 4 -7 8 -9 8 -2 0 -6 -4
-9 -8z"/>
<path d="M2350 5479 c0 -5 5 -7 10 -4 6 3 10 8 10 11 0 2 -4 4 -10 4 -5 0 -10
-5 -10 -11z"/>
<path d="M639 5478 c-5 -13 -5 -60 0 -63 4 -2 7 12 7 31 0 29 -3 42 -7 32z"/>
<path d="M5775 5420 c3 -5 8 -10 11 -10 2 0 4 5 4 10 0 6 -5 10 -11 10 -5 0
-7 -4 -4 -10z"/>
<path d="M3915 5411 c-3 -5 -2 -12 3 -15 5 -3 9 1 9 9 0 17 -3 19 -12 6z"/>
<path d="M3955 5400 c-3 -5 -1 -10 4 -10 6 0 11 5 11 10 0 6 -2 10 -4 10 -3 0
-8 -4 -11 -10z"/>
<path d="M5796 5402 c-3 -5 1 -9 9 -9 8 0 12 4 9 9 -3 4 -7 8 -9 8 -2 0 -6 -4
-9 -8z"/>
<path d="M3882 5324 c10 -10 20 -16 22 -13 3 3 -5 11 -17 18 -21 13 -21 12 -5
-5z"/>
<path d="M5870 5310 c0 -5 5 -10 11 -10 5 0 7 5 4 10 -3 6 -8 10 -11 10 -2 0
-4 -4 -4 -10z"/>
<path d="M494 5290 c0 -11 6 -20 11 -20 9 0 10 5 7 30 -3 19 -19 10 -18 -10z"/>
<path d="M2495 5300 c3 -5 8 -10 11 -10 2 0 4 5 4 10 0 6 -5 10 -11 10 -5 0
-7 -4 -4 -10z"/>
<path d="M460 5280 c0 -5 5 -10 11 -10 5 0 7 5 4 10 -3 6 -8 10 -11 10 -2 0
-4 -4 -4 -10z"/>
<path d="M5883 5279 c-6 -6 -8 -19 -6 -30 4 -15 8 -17 19 -8 12 9 12 15 2 27
-11 13 -10 15 5 9 11 -4 16 -3 12 3 -8 13 -18 13 -32 -1z"/>
<path d="M407 5259 c7 -7 15 -10 18 -7 3 3 -2 9 -12 12 -14 6 -15 5 -6 -5z"/>
<path d="M2553 5255 c0 -8 4 -12 9 -9 5 3 6 10 3 15 -9 13 -12 11 -12 -6z"/>
<path d="M435 5230 c-4 -6 -12 -7 -18 -3 -7 4 -5 -2 3 -13 8 -10 15 -20 15
-21 0 -1 6 6 13 17 6 11 8 21 2 25 -5 3 -11 1 -15 -5z"/>
<path d="M390 5211 c0 -5 7 -12 16 -15 14 -5 15 -4 4 9 -14 17 -20 19 -20 6z"/>
<path d="M3735 5180 c-3 -5 -1 -10 4 -10 6 0 11 5 11 10 0 6 -2 10 -4 10 -3 0
-8 -4 -11 -10z"/>
<path d="M360 5160 c0 -5 0 -12 0 -15 0 -3 -5 -12 -12 -19 -10 -10 -15 -11
-20 -2 -6 8 -8 8 -8 -1 0 -20 17 -24 31 -7 13 16 23 54 14 54 -3 0 -5 -4 -5
-10z"/>
<path d="M3715 5161 c4 -8 2 -17 -6 -22 -9 -6 -10 -9 -2 -9 19 0 27 21 13 33
-10 9 -11 9 -5 -2z"/>
<path d="M2646 5134 c-3 -9 -4 -19 -1 -24 9 -14 38 -4 41 14 2 17 1 16 -18 -1
-20 -18 -21 -18 -14 5 8 25 1 30 -8 6z"/>
<path d="M6065 5119 c-11 -16 -1 -19 13 -3 7 8 8 14 3 14 -5 0 -13 -5 -16 -11z"/>
<path d="M6101 5116 c-9 -11 -9 -16 1 -22 7 -4 10 -4 6 1 -4 4 -3 14 3 22 6 7
9 13 6 13 -2 0 -10 -6 -16 -14z"/>
<path d="M2690 5095 c-11 -13 -10 -14 4 -9 9 3 16 10 16 15 0 13 -6 11 -20 -6z"/>
<path d="M259 5098 c-5 -18 -6 -38 -1 -34 7 8 12 36 6 36 -2 0 -4 -1 -5 -2z"/>
<path d="M3667 5067 c2 -4 -1 -15 -9 -24 -12 -15 -11 -15 9 -2 30 18 37 38 13
36 -10 -1 -16 -5 -13 -10z"/>
<path d="M3596 5035 c-9 -26 -7 -32 5 -12 6 10 9 21 6 23 -2 3 -7 -2 -11 -11z"/>
<path d="M6132 5045 c4 -4 3 -14 -3 -22 -7 -8 -8 -13 -1 -13 15 0 23 28 9 36
-7 4 -9 4 -5 -1z"/>
<path d="M255 5020 c-3 -5 -13 -6 -23 -3 -13 4 -13 2 3 -10 27 -22 34 -21 32
3 -1 23 -3 24 -12 10z"/>
<path d="M189 5003 c-13 -16 -12 -17 4 -4 9 7 17 15 17 17 0 8 -8 3 -21 -13z"/>
<path d="M2807 4990 c10 -11 19 -20 21 -20 1 0 -2 9 -8 20 -6 11 -15 20 -20
20 -6 0 -2 -9 7 -20z"/>
<path d="M3495 4960 c3 -5 8 -10 11 -10 2 0 4 5 4 10 0 6 -5 10 -11 10 -5 0
-7 -4 -4 -10z"/>
<path d="M202 4956 c4 -5 2 -16 -5 -24 -9 -13 -9 -14 1 -8 6 4 12 2 12 -3 0
-6 -8 -11 -17 -11 -17 -1 -17 -1 0 -11 10 -6 14 -15 10 -22 -4 -7 0 -6 10 2
18 15 23 26 7 16 -13 -8 -13 1 0 25 7 13 5 21 -8 31 -9 7 -14 9 -10 5z"/>
<path d="M2860 4946 c0 -2 8 -10 18 -17 15 -13 16 -12 3 4 -13 16 -21 21 -21
13z"/>
<path d="M3473 4915 c0 -8 4 -15 9 -15 4 0 8 7 8 15 0 8 -4 15 -8 15 -5 0 -9
-7 -9 -15z"/>
<path d="M6195 4920 c3 -5 8 -10 11 -10 2 0 4 5 4 10 0 6 -5 10 -11 10 -5 0
-7 -4 -4 -10z"/>
<path d="M2910 4896 c0 -2 8 -10 18 -17 15 -13 16 -12 3 4 -13 16 -21 21 -21
13z"/>
<path d="M181 4874 c0 -11 3 -14 6 -6 3 7 2 16 -1 19 -3 4 -6 -2 -5 -13z"/>
<path d="M2950 4876 c0 -2 8 -10 18 -17 15 -13 16 -12 3 4 -13 16 -21 21 -21
13z"/>
<path d="M201 4851 c-7 -5 -11 -13 -7 -19 3 -6 1 -13 -4 -15 -6 -3 -5 -4 2 -2
7 1 12 9 10 16 -3 10 0 11 8 3 13 -13 2 -47 -13 -37 -6 3 -7 1 -3 -5 4 -6 13
-9 22 -5 8 3 12 8 10 11 -3 3 -1 11 6 19 15 18 -10 46 -31 34z"/>
<path d="M3395 4851 c-3 -5 -2 -12 3 -15 5 -3 9 1 9 9 0 17 -3 19 -12 6z"/>
<path d="M6196 4833 c-6 -14 -5 -15 5 -6 7 7 10 15 7 18 -3 3 -9 -2 -12 -12z"/>
<path d="M3424 4825 c-18 -14 -18 -15 5 -11 14 1 27 8 29 14 5 16 -10 15 -34
-3z"/>
<path d="M3383 4786 c6 -12 10 -25 8 -31 -1 -5 7 -1 18 9 24 22 17 44 -7 24
-13 -11 -15 -11 -10 3 4 9 1 16 -7 16 -11 0 -12 -5 -2 -21z"/>
<path d="M6185 4800 c-3 -6 1 -7 9 -4 18 7 21 14 7 14 -6 0 -13 -4 -16 -10z"/>
<path d="M215 4770 c-3 -5 -1 -11 5 -15 6 -4 8 -11 5 -16 -3 -5 1 -6 11 -2 14
5 15 3 5 -18 -12 -23 -11 -23 4 -4 14 18 14 21 0 31 -12 9 -13 13 -4 16 9 3 8
6 -4 11 -9 3 -19 2 -22 -3z"/>
<path d="M175 4760 c3 -5 8 -10 11 -10 2 0 4 5 4 10 0 6 -5 10 -11 10 -5 0 -7
-4 -4 -10z"/>
<path d="M3030 4750 c0 -5 5 -10 11 -10 5 0 7 5 4 10 -3 6 -8 10 -11 10 -2 0
-4 -4 -4 -10z"/>
<path d="M3069 4728 c5 -15 8 -36 6 -47 -2 -12 0 -21 6 -21 12 0 3 70 -11 84
-8 8 -8 3 -1 -16z"/>
<path d="M3303 4710 c2 -20 -2 -25 -20 -24 -27 2 -28 0 -7 -20 8 -9 11 -16 5
-16 -6 0 -11 -5 -11 -11 0 -8 5 -8 15 1 8 7 12 16 9 21 -3 5 -1 9 3 9 5 0 14
9 21 21 8 12 9 18 3 15 -5 -3 -12 2 -15 11 -3 11 -4 8 -3 -7z"/>
<path d="M6140 4720 c-12 -7 -10 -9 7 -7 12 0 19 5 17 9 -6 10 -6 10 -24 -2z"/>
<path d="M3107 4673 c3 -7 8 -13 12 -13 4 0 8 6 8 13 0 8 -6 14 -13 14 -7 0
-10 -6 -7 -14z"/>
<path d="M3242 4655 c-7 -8 -12 -18 -11 -22 3 -19 -2 -27 -10 -14 -5 7 -14 10
-20 7 -16 -10 -13 -29 3 -23 8 3 17 1 20 -6 3 -9 5 -8 5 1 1 7 6 10 11 7 6 -4
10 -3 9 2 -1 4 -1 10 1 13 3 10 10 50 7 50 -1 -1 -8 -7 -15 -15z"/>
<path d="M6099 4648 c-5 -18 -6 -38 -1 -34 7 8 12 36 6 36 -2 0 -4 -1 -5 -2z"/>
<path d="M342 4611 c-11 -7 -11 -9 0 -14 9 -3 15 1 15 9 0 8 -1 14 -1 14 -1 0
-7 -4 -14 -9z"/>
<path d="M330 4580 c0 -5 5 -10 11 -10 5 0 7 5 4 10 -3 6 -8 10 -11 10 -2 0
-4 -4 -4 -10z"/>
<path d="M5986 4582 c-2 -4 -2 -12 2 -17 10 -14 35 -18 27 -5 -3 5 0 10 7 10
9 0 9 3 -2 10 -18 12 -27 12 -34 2z"/>
<path d="M5948 4512 c-3 -11 0 -19 7 -19 7 0 10 8 7 19 -2 10 -6 18 -7 18 -1
0 -5 -8 -7 -18z"/>
<path d="M5990 4481 c0 -6 4 -12 8 -15 5 -3 9 1 9 9 0 8 -4 15 -9 15 -4 0 -8
-4 -8 -9z"/>
<path d="M5730 4279 c0 -5 5 -7 10 -4 6 3 10 8 10 11 0 2 -4 4 -10 4 -5 0 -10
-5 -10 -11z"/>
<path d="M5793 4245 c0 -8 4 -12 9 -9 5 3 6 10 3 15 -9 13 -12 11 -12 -6z"/>
<path d="M5670 4242 c0 -5 7 -9 15 -9 8 0 12 4 9 9 -3 4 -9 8 -15 8 -5 0 -9
-4 -9 -8z"/>
<path d="M5653 4185 c0 -8 4 -12 9 -9 5 3 6 10 3 15 -9 13 -12 11 -12 -6z"/>
<path d="M5553 4162 c-9 -15 -21 -32 -25 -38 -5 -7 -3 -14 6 -17 11 -4 13 -1
9 10 -4 10 -2 14 5 9 6 -3 14 -1 18 5 4 8 3 9 -4 5 -7 -4 -12 -3 -12 2 0 12
32 28 62 31 16 2 4 11 -21 16 -15 3 -26 -4 -38 -23z"/>
<path d="M790 4169 c0 -5 5 -7 10 -4 6 3 10 1 10 -4 0 -6 -4 -11 -8 -11 -5 0
-9 -7 -9 -16 0 -15 1 -15 12 0 7 8 16 12 20 8 4 -4 2 3 -4 16 -12 23 -31 30
-31 11z"/>
<path d="M5455 4020 c-3 -6 1 -7 9 -4 18 7 21 14 7 14 -6 0 -13 -4 -16 -10z"/>
<path d="M5436 3982 c-3 -5 1 -9 9 -9 8 0 12 4 9 9 -3 4 -7 8 -9 8 -2 0 -6 -4
-9 -8z"/>
<path d="M5395 3929 c-4 -6 -5 -12 -2 -15 2 -3 7 2 10 11 7 17 1 20 -8 4z"/>
<path d="M1033 3915 c0 -7 8 -10 19 -7 20 5 17 15 -6 18 -7 1 -13 -4 -13 -11z"/>
<path d="M1016 3882 c-3 -4 4 -9 15 -9 23 -2 25 3 4 10 -8 4 -16 3 -19 -1z"/>
<path d="M1066 3802 c-3 -5 1 -9 9 -9 8 0 12 4 9 9 -3 4 -7 8 -9 8 -2 0 -6 -4
-9 -8z"/>
<path d="M1200 3765 c-9 -11 -9 -15 -1 -15 7 0 9 -5 5 -12 -4 -7 -3 -10 1 -5
9 8 18 47 11 47 -2 0 -9 -7 -16 -15z"/>
<path d="M1170 3740 c0 -5 5 -10 11 -10 5 0 7 5 4 10 -3 6 -8 10 -11 10 -2 0
-4 -4 -4 -10z"/>
<path d="M1273 3669 c-1 -11 8 -24 20 -30 21 -9 21 -9 3 5 -10 8 -15 19 -12
25 4 5 3 12 -2 15 -4 2 -9 -4 -9 -15z"/>
<path d="M5073 3615 c-3 -9 -3 -18 -1 -21 3 -3 8 4 11 16 6 23 -1 27 -10 5z"/>
<path d="M4990 3539 c0 -5 5 -7 10 -4 6 3 10 8 10 11 0 2 -4 4 -10 4 -5 0 -10
-5 -10 -11z"/>
<path d="M1375 3529 c-4 -6 -5 -12 -2 -15 2 -3 7 2 10 11 7 17 1 20 -8 4z"/>
<path d="M1520 3440 c13 -8 12 -10 -4 -10 -11 0 -17 -3 -13 -6 3 -3 15 -3 28
1 17 6 19 9 8 16 -8 5 -18 9 -24 9 -5 0 -3 -5 5 -10z"/>
<path d="M4835 3420 c-3 -5 -1 -10 4 -10 6 0 11 5 11 10 0 6 -2 10 -4 10 -3 0
-8 -4 -11 -10z"/>
<path d="M1494 3383 c8 -8 56 -11 51 -3 -3 4 -16 8 -30 8 -14 0 -24 -3 -21 -5z"/>
<path d="M4755 3360 c-3 -5 0 -10 7 -10 9 0 9 -3 -2 -10 -12 -7 -10 -9 8 -7
26 2 27 4 8 23 -9 9 -17 10 -21 4z"/>
<path d="M4806 3342 c-3 -5 1 -9 9 -9 8 0 12 4 9 9 -3 4 -7 8 -9 8 -2 0 -6 -4
-9 -8z"/>
<path d="M1590 3326 c0 -2 7 -7 16 -10 8 -3 12 -2 9 4 -6 10 -25 14 -25 6z"/>
<path d="M4749 3283 c-13 -16 -12 -17 4 -4 9 7 17 15 17 17 0 8 -8 3 -21 -13z"/>
<path d="M1610 3266 c0 -2 7 -7 16 -10 8 -3 12 -2 9 4 -6 10 -25 14 -25 6z"/>
<path d="M1654 3243 c4 -4 16 -8 28 -10 28 -4 18 6 -12 12 -12 2 -20 1 -16 -2z"/>
<path d="M1732 3185 c-12 -13 -17 -27 -12 -30 5 -3 11 4 15 15 4 11 10 18 15
15 5 -3 11 -1 14 4 14 22 -13 18 -32 -4z"/>
<path d="M4676 3155 c-9 -26 -7 -32 5 -12 6 10 9 21 6 23 -2 3 -7 -2 -11 -11z"/>
<path d="M4705 3160 c-3 -6 1 -7 9 -4 18 7 21 14 7 14 -6 0 -13 -4 -16 -10z"/>
<path d="M1673 3135 c0 -8 4 -12 9 -9 4 3 8 9 8 15 0 5 -4 9 -8 9 -5 0 -9 -7
-9 -15z"/>
<path d="M4685 3119 c-11 -16 -1 -19 13 -3 7 8 8 14 3 14 -5 0 -13 -5 -16 -11z"/>
<path d="M1706 3107 c9 -24 -5 -41 -22 -26 -12 10 -17 9 -27 0 -9 -10 -8 -11
5 -6 12 5 16 2 13 -12 -2 -10 -4 -22 -4 -26 -1 -5 -6 -5 -13 -1 -7 4 -8 3 -4
-4 4 -6 13 -9 22 -5 8 3 12 8 9 11 -3 3 6 18 20 32 23 24 24 28 10 40 -13 11
-14 10 -9 -3z"/>
<path d="M1670 3106 c0 -2 7 -7 16 -10 8 -3 12 -2 9 4 -6 10 -25 14 -25 6z"/>
<path d="M1626 3062 c-3 -4 4 -9 15 -9 23 -2 25 3 4 10 -8 4 -16 3 -19 -1z"/>
<path d="M1595 3051 c-3 -5 -2 -12 3 -15 5 -3 9 1 9 9 0 17 -3 19 -12 6z"/>
<path d="M4815 2980 c6 -9 4 -12 -7 -8 -19 8 -45 -7 -29 -16 6 -4 11 -3 11 3
0 6 6 8 14 5 18 -7 30 12 15 22 -8 5 -9 3 -4 -6z"/>
<path d="M1530 2939 c0 -4 11 -6 24 -5 13 0 22 4 20 8 -6 9 -44 6 -44 -3z"/>
<path d="M1480 2910 c-6 -11 -8 -20 -6 -20 3 0 10 9 16 20 6 11 8 20 6 20 -3
0 -10 -9 -16 -20z"/>
<path d="M1495 2880 c4 -6 11 -8 16 -5 14 9 11 15 -7 15 -8 0 -12 -5 -9 -10z"/>
<path d="M5006 2784 c7 -3 10 -15 8 -27 -4 -21 -4 -21 5 -2 10 23 5 35 -12 34
-9 0 -9 -2 -1 -5z"/>
<path d="M5170 2640 c0 -5 5 -10 11 -10 5 0 7 5 4 10 -3 6 -8 10 -11 10 -2 0
-4 -4 -4 -10z"/>
<path d="M1125 2560 c-3 -5 -1 -10 4 -10 6 0 11 5 11 10 0 6 -2 10 -4 10 -3 0
-8 -4 -11 -10z"/>
<path d="M5290 2539 c0 -5 5 -7 10 -4 6 3 10 8 10 11 0 2 -4 4 -10 4 -5 0 -10
-5 -10 -11z"/>
<path d="M1070 2499 c0 -5 5 -7 10 -4 6 3 10 8 10 11 0 2 -4 4 -10 4 -5 0 -10
-5 -10 -11z"/>
<path d="M5301 2474 c0 -11 3 -14 6 -6 3 7 2 16 -1 19 -3 4 -6 -2 -5 -13z"/>
<path d="M1056 2463 c-6 -14 -5 -15 5 -6 7 7 10 15 7 18 -3 3 -9 -2 -12 -12z"/>
<path d="M5354 2431 c4 -6 0 -14 -9 -17 -11 -5 -13 -10 -5 -19 5 -6 8 -14 5
-17 -3 -2 2 -5 10 -5 8 0 13 3 10 5 -3 3 1 12 8 21 11 14 10 14 -5 2 -19 -15
-25 -2 -7 16 8 8 7 13 -2 18 -8 5 -10 4 -5 -4z"/>
<path d="M5388 2383 c7 -3 16 -2 19 1 4 3 -2 6 -13 5 -11 0 -14 -3 -6 -6z"/>
<path d="M955 2320 c-3 -5 -2 -10 4 -10 5 0 13 5 16 10 3 6 2 10 -4 10 -5 0
-13 -4 -16 -10z"/>
<path d="M830 2266 c0 -2 7 -7 16 -10 8 -3 12 -2 9 4 -6 10 -25 14 -25 6z"/>
<path d="M727 2111 c-5 -21 -8 -22 -21 -11 -11 8 -16 9 -16 1 0 -6 5 -11 10
-11 6 0 10 -5 10 -11 0 -5 -4 -7 -10 -4 -5 3 -10 1 -10 -5 0 -6 -4 -8 -10 -5
-5 3 -10 2 -10 -4 0 -19 39 -6 49 17 6 13 15 21 20 18 5 -3 12 1 15 10 3 8 2
13 -3 9 -5 -3 -11 0 -13 7 -3 7 -7 2 -11 -11z"/>
<path d="M575 2020 c-3 -5 -1 -10 4 -10 6 0 11 5 11 10 0 6 -2 10 -4 10 -3 0
-8 -4 -11 -10z"/>
<path d="M609 2023 c-1 -5 -1 -11 0 -15 2 -16 -33 -46 -48 -41 -11 3 -10 1 3
-8 15 -9 20 -9 28 5 5 9 13 14 17 11 5 -2 14 2 21 10 10 12 9 16 -4 21 -9 3
-13 10 -10 15 3 5 3 9 0 9 -3 0 -7 -3 -7 -7z"/>
<path d="M5765 2019 c-4 -6 -5 -12 -2 -15 2 -3 7 2 10 11 7 17 1 20 -8 4z"/>
<path d="M5790 2017 c0 -2 6 -10 14 -16 11 -9 16 -9 22 1 4 7 4 10 -1 6 -4 -4
-14 -3 -22 3 -7 6 -13 9 -13 6z"/>
<path d="M5837 1939 c7 -7 15 -10 18 -7 3 3 -2 9 -12 12 -14 6 -15 5 -6 -5z"/>
<path d="M455 1889 c-4 -6 -5 -12 -2 -15 2 -3 7 2 10 11 7 17 1 20 -8 4z"/>
<path d="M5956 1842 c-3 -5 1 -9 9 -9 8 0 12 4 9 9 -3 4 -7 8 -9 8 -2 0 -6 -4
-9 -8z"/>
<path d="M383 1780 c0 -26 2 -27 13 -12 7 9 9 19 6 22 -4 3 -10 9 -13 13 -3 4
-6 -6 -6 -23z"/>
<path d="M6015 1780 c3 -5 8 -10 11 -10 2 0 4 5 4 10 0 6 -5 10 -11 10 -5 0
-7 -4 -4 -10z"/>
<path d="M3206 1717 c3 -10 9 -15 12 -12 3 3 0 11 -7 18 -10 9 -11 8 -5 -6z"/>
<path d="M6060 1696 c10 -13 40 -12 40 1 0 3 -7 3 -15 -1 -8 -3 -15 -1 -15 4
0 6 -5 10 -11 10 -8 0 -8 -4 1 -14z"/>
<path d="M3072 1678 c-6 -9 -4 -19 8 -31 13 -14 20 -15 26 -6 4 8 3 10 -4 5
-12 -7 -16 5 -13 32 1 6 0 12 -2 12 -3 0 -9 -6 -15 -12z"/>
<path d="M3103 1675 c0 -8 4 -12 9 -9 5 3 6 10 3 15 -9 13 -12 11 -12 -6z"/>
<path d="M3130 1682 c0 -5 7 -9 15 -9 8 0 12 4 9 9 -3 4 -9 8 -15 8 -5 0 -9
-4 -9 -8z"/>
<path d="M3315 1640 c-3 -5 -1 -10 4 -10 6 0 11 5 11 10 0 6 -2 10 -4 10 -3 0
-8 -4 -11 -10z"/>
<path d="M235 1630 c-3 -6 1 -7 9 -4 18 7 21 14 7 14 -6 0 -13 -4 -16 -10z"/>
<path d="M3332 1600 c0 -14 2 -19 5 -12 2 6 2 18 0 25 -3 6 -5 1 -5 -13z"/>
<path d="M6148 1573 c7 -3 16 -2 19 1 4 3 -2 6 -13 5 -11 0 -14 -3 -6 -6z"/>
<path d="M3333 1551 c0 -11 5 -18 9 -15 4 3 5 11 1 19 -7 21 -12 19 -10 -4z"/>
<path d="M2975 1520 c-3 -6 1 -7 9 -4 18 7 21 14 7 14 -6 0 -13 -4 -16 -10z"/>
<path d="M6133 1505 c0 -8 4 -12 9 -9 5 3 6 10 3 15 -9 13 -12 11 -12 -6z"/>
<path d="M201 1490 c7 -14 12 -34 11 -45 -2 -18 -1 -18 6 -2 4 10 11 18 15 18
4 -1 7 2 7 7 0 4 -4 7 -10 7 -5 0 -16 9 -25 20 -15 19 -16 19 -4 -5z"/>
<path d="M3478 1485 c6 -12 23 -34 39 -50 15 -15 21 -26 12 -23 -9 4 -16 1
-16 -7 0 -8 7 -11 15 -7 9 3 13 1 9 -5 -4 -7 0 -10 10 -9 19 3 31 26 13 26 -6
0 -8 5 -4 12 4 6 3 8 -4 4 -6 -3 -27 13 -47 36 -21 24 -33 34 -27 23z"/>
<path d="M3436 1477 c3 -10 9 -15 12 -12 3 3 0 11 -7 18 -10 9 -11 8 -5 -6z"/>
<path d="M6150 1486 c0 -2 7 -7 16 -10 8 -3 12 -2 9 4 -6 10 -25 14 -25 6z"/>
<path d="M3461 1457 c2 -1 13 -9 24 -17 19 -14 19 -14 6 3 -7 9 -18 17 -24 17
-6 0 -8 -1 -6 -3z"/>
<path d="M6190 1456 c0 -2 8 -10 18 -17 15 -13 16 -12 3 4 -13 16 -21 21 -21
13z"/>
<path d="M2890 1439 c0 -5 5 -7 10 -4 6 3 10 8 10 11 0 2 -4 4 -10 4 -5 0 -10
-5 -10 -11z"/>
<path d="M3427 1439 c7 -7 15 -10 18 -7 3 3 -2 9 -12 12 -14 6 -15 5 -6 -5z"/>
<path d="M239 1434 c-1 -5 -1 -13 0 -18 1 -5 -6 -5 -16 -2 -13 5 -15 4 -7 -4
7 -6 19 -7 33 -2 20 7 21 9 7 21 -9 8 -17 10 -17 5z"/>
<path d="M3614 1353 c3 -6 1 -13 -6 -16 -7 -2 -5 -3 5 -2 17 3 20 -6 19 -50
-1 -16 0 -16 4 -3 3 9 11 16 17 14 7 -1 9 -1 4 1 -4 3 -5 8 -2 12 2 5 -7 19
-22 32 -14 13 -23 19 -19 12z"/>
<path d="M2756 1295 c-11 -8 -17 -17 -14 -20 2 -3 13 4 23 15 21 23 18 25 -9
5z"/>
<path d="M270 1281 c0 -6 4 -13 10 -16 6 -3 7 1 4 9 -7 18 -14 21 -14 7z"/>
<path d="M330 1282 c0 -7 5 -12 10 -12 6 0 9 -6 8 -12 -2 -7 3 -12 10 -10 8 1
12 -3 9 -10 -2 -7 -10 -12 -16 -10 -7 1 -4 -8 6 -22 10 -13 20 -19 22 -13 2 6
-1 13 -8 15 -6 2 -9 8 -6 13 3 5 14 3 25 -3 14 -9 16 -16 8 -25 -6 -7 -7 -13
-2 -13 5 0 2 -5 -6 -11 -10 -7 -11 -9 -2 -7 8 2 13 8 12 13 -1 5 5 12 13 15
11 4 1 18 -34 54 -27 28 -49 44 -49 38z"/>
<path d="M2675 1270 c-4 -6 -5 -10 -3 -11 25 -6 38 -6 38 1 0 12 -29 20 -35
10z"/>
<path d="M6080 1260 c-8 -5 -10 -10 -5 -10 6 0 17 5 25 10 8 5 11 10 5 10 -5
0 -17 -5 -25 -10z"/>
<path d="M3741 1221 c-11 -7 -11 -9 0 -13 11 -4 12 -8 1 -20 -10 -13 -10 -17
3 -21 9 -4 19 2 25 14 9 15 7 21 -5 25 -8 3 -12 10 -9 15 7 11 3 11 -15 0z
m22 -36 c-3 -9 -8 -14 -10 -11 -3 3 -2 9 2 15 9 16 15 13 8 -4z"/>
<path d="M3710 1205 c0 -8 4 -15 10 -15 5 0 7 7 4 15 -4 8 -8 15 -10 15 -2 0
-4 -7 -4 -15z"/>
<path d="M2537 1133 c-14 -16 -14 -21 -1 -43 9 -14 13 -17 10 -8 -3 10 2 24
10 33 9 9 11 15 4 15 -6 0 -8 5 -5 10 10 16 0 12 -18 -7z"/>
<path d="M2606 1142 c-3 -5 1 -9 9 -9 8 0 12 4 9 9 -3 4 -7 8 -9 8 -2 0 -6 -4
-9 -8z"/>
<path d="M3820 1099 c0 -5 3 -8 8 -8 19 3 33 -2 28 -10 -3 -5 1 -11 9 -14 10
-4 12 -1 8 10 -5 12 -3 14 8 8 12 -7 12 -6 1 7 -13 16 -62 22 -62 7z"/>
<path d="M5888 1095 c-3 -3 -16 -8 -28 -10 -30 -6 -51 -25 -27 -25 9 0 17 5
17 11 0 5 4 8 9 5 4 -3 17 1 27 9 10 8 16 15 13 15 -3 0 -8 -2 -11 -5z"/>
<path d="M5890 1059 c0 -5 5 -7 10 -4 6 3 10 8 10 11 0 2 -4 4 -10 4 -5 0 -10
-5 -10 -11z"/>
<path d="M3816 1033 c-6 -14 -5 -15 5 -6 7 7 10 15 7 18 -3 3 -9 -2 -12 -12z"/>
<path d="M3856 1038 c3 -5 10 -6 15 -3 13 9 11 12 -6 12 -8 0 -12 -4 -9 -9z"/>
<path d="M5807 1035 c-4 -8 -1 -17 5 -21 7 -4 8 -3 4 4 -4 7 -2 12 3 12 6 0
11 5 11 10 0 15 -17 12 -23 -5z"/>
<path d="M2475 1019 c-4 -6 -5 -12 -2 -15 2 -3 7 2 10 11 7 17 1 20 -8 4z"/>
<path d="M3915 991 c-3 -5 -2 -12 3 -15 5 -3 9 1 9 9 0 17 -3 19 -12 6z"/>
<path d="M3952 966 c7 -8 15 -12 17 -11 5 6 -10 25 -20 25 -5 0 -4 -6 3 -14z"/>
<path d="M2430 956 c7 -7 13 -7 20 0 6 6 3 10 -10 10 -13 0 -16 -4 -10 -10z"/>
<path d="M2327 932 c-15 -16 -15 -19 4 -31 12 -7 18 -8 15 -2 -3 5 2 12 11 14
17 4 17 5 1 6 -11 1 -15 6 -12 16 8 20 1 19 -19 -3z"/>
<path d="M4032 923 c1 -18 4 -30 7 -27 3 2 11 -6 18 -18 12 -22 12 -21 9 10
-2 19 -11 41 -20 50 -16 16 -17 15 -14 -15z m22 -9 c3 -8 2 -12 -4 -9 -6 3
-10 10 -10 16 0 14 7 11 14 -7z"/>
<path d="M3940 926 c0 -2 8 -10 18 -17 15 -13 16 -12 3 4 -13 16 -21 21 -21
13z"/>
<path d="M5718 923 c7 -3 16 -2 19 1 4 3 -2 6 -13 5 -11 0 -14 -3 -6 -6z"/>
<path d="M715 910 c-3 -5 -2 -10 4 -10 5 0 13 5 16 10 3 6 2 10 -4 10 -5 0
-13 -4 -16 -10z"/>
<path d="M790 839 c0 -6 -4 -7 -10 -4 -5 3 -10 2 -10 -4 0 -5 5 -13 10 -16 6
-3 10 -1 10 5 0 6 4 9 9 5 5 -3 12 -1 15 4 3 5 -1 11 -9 15 -8 3 -15 1 -15 -5z"/>
<path d="M4150 795 c-7 -9 -10 -18 -6 -22 3 -3 6 -1 6 4 0 6 8 10 18 8 9 -2
19 -4 22 -4 3 -1 -1 -5 -8 -10 -11 -7 -10 -9 3 -14 9 -4 13 -3 10 3 -3 6 -1
10 4 10 6 0 11 -6 11 -14 0 -8 5 -18 10 -21 21 -13 9 16 -20 45 -34 35 -34 35
-50 15z"/>
<path d="M4085 780 c-3 -6 1 -7 9 -4 18 7 21 14 7 14 -6 0 -13 -4 -16 -10z"/>
<path d="M2196 753 c-6 -14 -5 -15 5 -6 7 7 10 15 7 18 -3 3 -9 -2 -12 -12z"/>
<path d="M795 751 c-3 -5 -2 -12 3 -15 5 -3 9 1 9 9 0 17 -3 19 -12 6z"/>
<path d="M4190 722 c0 -5 7 -9 15 -9 8 0 12 4 9 9 -3 4 -9 8 -15 8 -5 0 -9 -4
-9 -8z"/>
<path d="M5516 722 c-2 -4 4 -8 14 -8 10 0 16 4 14 8 -3 4 -9 8 -14 8 -5 0
-11 -4 -14 -8z"/>
<path d="M4226 682 c-3 -5 1 -9 9 -9 8 0 15 4 15 9 0 4 -4 8 -9 8 -6 0 -12 -4
-15 -8z"/>
<path d="M906 665 c-11 -8 -15 -15 -9 -15 6 0 16 7 23 15 16 19 11 19 -14 0z"/>
<path d="M4275 664 l-30 -13 30 5 c29 5 29 5 11 -10 -11 -9 -15 -16 -9 -16 14
0 46 37 36 43 -4 3 -21 -1 -38 -9z"/>
<path d="M2090 651 c0 -7 -4 -9 -10 -6 -5 3 -10 1 -10 -4 0 -6 4 -11 9 -11 13
0 25 20 17 27 -3 4 -6 1 -6 -6z"/>
<path d="M5496 633 c-6 -14 -5 -15 5 -6 7 7 10 15 7 18 -3 3 -9 -2 -12 -12z"/>
<path d="M2046 614 c-5 -12 -10 -13 -19 -5 -20 16 -40 -7 -22 -25 7 -8 17 -14
21 -14 5 0 3 5 -4 12 -16 16 -15 31 1 21 22 -14 33 -11 34 8 2 23 -3 24 -11 3z"/>
<path d="M2076 607 c3 -10 9 -15 12 -12 3 3 0 11 -7 18 -10 9 -11 8 -5 -6z"/>
<path d="M5405 600 c3 -5 8 -10 11 -10 2 0 4 5 4 10 0 6 -5 10 -11 10 -5 0 -7
-4 -4 -10z"/>
<path d="M5335 540 c-3 -5 -1 -10 4 -10 6 0 11 5 11 10 0 6 -2 10 -4 10 -3 0
-8 -4 -11 -10z"/>
<path d="M1050 521 c0 -6 4 -13 10 -16 6 -3 7 1 4 9 -7 18 -14 21 -14 7z"/>
<path d="M5227 514 c-8 -8 1 -24 12 -24 4 0 8 7 8 15 0 16 -9 20 -20 9z"/>
<path d="M2015 489 c-4 -6 -5 -12 -2 -15 2 -3 7 2 10 11 7 17 1 20 -8 4z"/>
<path d="M1095 480 c-3 -6 1 -7 9 -4 18 7 21 14 7 14 -6 0 -13 -4 -16 -10z"/>
<path d="M1900 480 c0 -6 7 -10 15 -10 8 0 15 2 15 4 0 2 -7 6 -15 10 -8 3
-15 1 -15 -4z"/>
<path d="M5370 479 c0 -5 5 -7 10 -4 6 3 10 8 10 11 0 2 -4 4 -10 4 -5 0 -10
-5 -10 -11z"/>
<path d="M1110 460 c0 -5 5 -10 11 -10 5 0 7 5 4 10 -3 6 -8 10 -11 10 -2 0
-4 -4 -4 -10z"/>
<path d="M5300 440 c-9 -6 -10 -10 -3 -10 6 0 15 5 18 10 8 12 4 12 -15 0z"/>
<path d="M1170 416 c0 -2 7 -9 15 -16 9 -7 15 -8 15 -2 0 5 -7 12 -15 16 -8 3
-15 4 -15 2z"/>
<path d="M1870 406 c0 -2 7 -7 16 -10 8 -3 12 -2 9 4 -6 10 -25 14 -25 6z"/>
<path d="M4513 396 c0 -8 6 -12 14 -9 7 3 10 9 7 14 -8 14 -21 11 -21 -5z"/>
<path d="M4550 402 c0 -5 12 -14 26 -20 14 -7 23 -8 19 -2 -9 15 -45 32 -45
22z"/>
<path d="M5137 404 c-7 -8 3 -34 13 -34 9 0 8 26 -1 35 -3 3 -8 2 -12 -1z"/>
<path d="M5195 400 c-3 -5 -2 -10 4 -10 5 0 13 5 16 10 3 6 2 10 -4 10 -5 0
-13 -4 -16 -10z"/>
<path d="M1190 376 c0 -2 8 -10 18 -17 15 -13 16 -12 3 4 -13 16 -21 21 -21
13z"/>
<path d="M4541 364 c0 -11 3 -14 6 -6 3 7 2 16 -1 19 -3 4 -6 -2 -5 -13z"/>
<path d="M1800 340 c-9 -6 -10 -10 -3 -10 6 0 15 5 18 10 8 12 4 12 -15 0z"/>
<path d="M1266 325 c-3 -9 -2 -13 3 -10 6 3 14 -3 20 -12 6 -10 10 -13 10 -8
0 6 -6 18 -13 28 -12 16 -14 16 -20 2z"/>
<path d="M5107 326 c-4 -10 -1 -13 8 -9 8 3 12 9 9 14 -7 12 -11 11 -17 -5z"/>
<path d="M4605 320 c-3 -5 -1 -10 4 -10 6 0 11 5 11 10 0 6 -2 10 -4 10 -3 0
-8 -4 -11 -10z"/>
<path d="M4630 318 c0 -4 6 -8 13 -8 8 0 7 -4 -3 -11 -12 -8 -12 -10 -1 -7 19
5 23 35 5 35 -8 0 -14 -4 -14 -9z"/>
<path d="M1750 301 c0 -6 4 -13 10 -16 6 -3 7 1 4 9 -7 18 -14 21 -14 7z"/>
<path d="M1328 293 c-22 -5 -24 -20 -3 -20 8 0 16 6 19 14 3 7 4 12 3 12 -1
-1 -10 -3 -19 -6z"/>
<path d="M1413 253 c1 -17 4 -20 15 -11 10 9 15 9 20 1 4 -6 14 -13 22 -15 8
-2 21 -10 27 -18 11 -13 12 -13 7 2 -6 17 10 19 34 5 15 -10 52 1 52 15 0 7 5
6 14 -1 12 -10 14 -9 12 6 -4 24 -83 27 -108 5 -13 -11 -18 -12 -18 -2 0 7 -7
10 -15 7 -8 -4 -17 -2 -21 4 -3 6 -12 8 -19 5 -8 -3 -16 0 -18 7 -3 7 -4 2 -4
-10z m139 -18 c5 -6 8 -6 8 1 0 6 7 11 15 11 14 0 14 -2 2 -15 -11 -10 -20
-11 -35 -3 -10 6 -23 7 -27 3 -5 -4 -5 -1 -1 5 8 14 27 13 38 -2z"/>
<path d="M1373 245 c0 -7 6 -11 14 -8 7 3 13 6 13 8 0 2 -6 5 -13 8 -8 3 -14
-1 -14 -8z"/>
<path d="M4914 245 c-4 -8 -11 -12 -18 -8 -24 15 -62 11 -74 -8 -7 -10 -8 -19
-3 -19 5 0 12 8 16 18 6 16 7 16 21 -2 9 -14 11 -23 3 -32 -7 -8 -6 -14 2 -20
7 -4 9 -3 5 4 -3 6 -2 13 3 17 6 3 7 13 4 23 -6 14 -4 15 9 4 14 -11 18 -10
30 7 8 12 18 18 23 13 5 -4 5 -1 1 6 -9 16 -15 15 -22 -3z"/>
<path d="M4687 239 c7 -7 15 -10 18 -7 3 3 -2 9 -12 12 -14 6 -15 5 -6 -5z"/>
<path d="M4782 230 c-7 -11 -10 -20 -6 -20 7 0 34 27 34 34 0 13 -16 5 -28
-14z"/>
<path d="M4950 241 c0 -6 4 -12 8 -15 5 -3 9 1 9 9 0 8 -4 15 -9 15 -4 0 -8
-4 -8 -9z"/>
<path d="M1420 220 c-12 -7 -10 -9 7 -7 12 0 19 5 17 9 -6 10 -6 10 -24 -2z"/>
<path d="M4930 220 c0 -5 5 -10 11 -10 5 0 7 5 4 10 -3 6 -8 10 -11 10 -2 0
-4 -4 -4 -10z"/>
<path d="M4735 211 c-3 -5 -2 -12 3 -15 5 -3 9 1 9 9 0 17 -3 19 -12 6z"/>
<path d="M4836 203 c-6 -14 -5 -15 5 -6 7 7 10 15 7 18 -3 3 -9 -2 -12 -12z"/>
<path d="M1516 193 c-6 -14 -5 -15 5 -6 7 7 10 15 7 18 -3 3 -9 -2 -12 -12z"/>
<path d="M1599 193 c-13 -16 -12 -17 4 -4 16 13 21 21 13 21 -2 0 -10 -8 -17
-17z"/>
<path d="M4789 183 c-13 -16 -12 -17 4 -4 9 7 17 15 17 17 0 8 -8 3 -21 -13z"/>
</g>
</svg>
