<?xml version="1.0" standalone="no"?>
<!DOCTYPE svg PUBLIC "-//W3C//DTD SVG 20010904//EN"
 "http://www.w3.org/TR/2001/REC-SVG-20010904/DTD/svg10.dtd">
<svg version="1.0" xmlns="http://www.w3.org/2000/svg"
 width="700.000000pt" height="700.000000pt" viewBox="0 0 700.000000 700.000000"
 preserveAspectRatio="xMidYMid meet">
<metadata>
Created by potrace 1.11, written by Peter Selinger 2001-2013
</metadata>
<g transform="translate(0.000000,700.000000) scale(0.100000,-0.100000)"
fill="#000000" stroke="none">
<path d="M2137 6216 c-22 -8 -50 -25 -64 -38 -14 -12 -305 -302 -646 -643
-430 -430 -626 -632 -638 -660 -22 -47 -23 -70 -8 -133 11 -44 48 -83 603
-640 325 -326 591 -597 591 -602 0 -6 -261 -272 -581 -593 -319 -320 -589
-595 -600 -612 -24 -39 -25 -137 -1 -182 9 -17 303 -318 654 -668 449 -450
649 -643 677 -656 47 -21 125 -19 170 5 16 8 292 277 613 598 321 321 586 585
589 588 2 2 271 -262 597 -587 326 -325 601 -595 612 -601 36 -18 99 -23 148
-11 45 10 81 45 692 656 355 355 653 659 661 675 24 47 28 117 9 163 -12 30
-171 195 -608 633 l-592 592 115 115 c63 64 326 326 583 583 257 257 477 481
488 499 30 49 35 121 12 174 -16 35 -167 191 -657 682 -351 351 -650 644 -664
651 -46 23 -91 28 -145 16 -51 -12 -64 -24 -645 -604 -326 -325 -595 -593
-598 -596 -3 -2 -271 262 -597 587 -340 340 -605 597 -622 604 -47 18 -106 20
-148 5z"/>
</g>
</svg>
